<?xml version="1.0" encoding="utf-8"?>
<!-- Generator: Adobe Illustrator 19.2.1, SVG Export Plug-In . SVG Version: 6.00 Build 0)  -->
<svg version="1.1" xmlns="http://www.w3.org/2000/svg" xmlns:xlink="http://www.w3.org/1999/xlink" x="0px" y="0px"
	 viewBox="0 0 3000 5000" style="enable-background:new 0 0 3000 5000;" xml:space="preserve">
<style type="text/css">
	.st0{fill:none;}
	.st1{fill:#FFFFFF;}
	.st2{display:none;}
	.st3{display:inline;fill:#0C0C0C;}
	.st4{opacity:0.5;fill:none;stroke:#575757;stroke-miterlimit:10;}
	.st5{fill:none;stroke:#575757;stroke-miterlimit:10;}
	.st6{fill:none;stroke:#575757;stroke-miterlimit:10;stroke-dasharray:2,5;}
	.st7{fill:none;stroke:#575757;stroke-miterlimit:10;stroke-dasharray:1.9996,4.999;}
	.st8{fill:none;stroke:#575757;stroke-miterlimit:10;stroke-dasharray:2.001,5.0025;}
	.st9{fill:none;stroke:#828282;stroke-miterlimit:10;}
	.st10{fill:none;stroke:#575757;stroke-miterlimit:10;stroke-dasharray:2.0036,5.009;}
	.st11{fill:none;stroke:#575757;stroke-miterlimit:10;stroke-dasharray:1.998,4.9951;}
	.st12{fill:none;stroke:#575757;stroke-miterlimit:10;stroke-dasharray:2.0025,5.0062;}
	.st13{opacity:0.5;}
	.st14{fill:none;stroke:#575757;stroke-miterlimit:10;stroke-dasharray:1.9997,4.9992;}
	.st15{fill:none;stroke:#575757;stroke-miterlimit:10;stroke-dasharray:2.0091,5.0227;}
	.st16{fill:url(#v);}
	.st17{opacity:0.5;fill:url(#SVGID_1_);}
	.st18{opacity:0.5;fill:url(#v);}
	.st19{opacity:0.75;fill:url(#SVGID_2_);}
	.st20{opacity:0.5;fill:url(#SVGID_3_);}
	.st21{opacity:0.5;fill:url(#SVGID_4_);}
</style>
<pattern  x="780" y="1020" width="10" height="10" patternUnits="userSpaceOnUse" id="v" viewBox="0 -10 10 10" style="overflow:visible;">
	<g>
		<rect y="-10" class="st0" width="10" height="10"/>
		<circle class="st1" cx="5" cy="-5" r="0.5"/>
	</g>
</pattern>
<g id="Layer_3" class="st2">
	<rect y="0" class="st3" width="3000" height="5000"/>
</g>
<g id="Layer_1" class="st2">
	
		<image style="display:inline;overflow:visible;" width="1440" height="2958" xlink:href="%5bpage%5d"  transform="matrix(1 0 0 1 780 252.9798)">
	</image>
</g>
<g id="Layer_2">
	<polygon class="st4" points="1328,253.5 1257,1208.2 1764,1252.4 1843,253.5 	"/>
	<polygon class="st4" points="1612,365 1414,1128 1968,1281.4 2085,490 	"/>
	<polygon class="st4" points="1376,1054 1387,1293 1743,1278 1726,1044 	"/>
	<polygon class="st4" points="1453,1461 1447,1586 1635,1602 1645,1476 	"/>
	<polygon class="st4" points="1321,1688 1161,2248 1516,2350 1676,1792 	"/>
	<polygon class="st4" points="1015,2259 1014,2672 1596,2671 1593,2257 	"/>
	<polygon class="st4" points="1134,2502 1108,2833 1613,2872 1640,2539 	"/>
	<polygon class="st4" points="1303.4,3810.5 1626.2,3732.7 1506.9,3240.4 1181.9,3317.9 	"/>
	<polygon class="st4" points="1226,2785 1272,3124 1479,3094 1432,2756 	"/>
	<polygon class="st4" points="1155,2083 1201,2422 1391,2389 1342,2057 	"/>
	<polygon class="st4" points="1182,1579 1191,1907 1734,1892 1727,1566 	"/>
	<g>
		<g>
			<line class="st6" x1="3002" y1="707.5" x2="963" y2="707.5"/>
			<polyline class="st5" points="960.5,707.5 959.5,707.5 959.5,708.5 			"/>
			<line class="st6" x1="959.5" y1="714" x2="959.5" y2="3205"/>
			<line class="st5" x1="959.5" y1="3208" x2="959.5" y2="3209"/>
		</g>
	</g>
	<g>
		<g>
			<line class="st6" x1="3055" y1="1078.5" x2="1503" y2="1078.5"/>
			<line class="st5" x1="1501" y1="1078.5" x2="1500" y2="1078.5"/>
		</g>
	</g>
	<g>
		<g>
			<line class="st6" x1="3055" y1="1394.5" x2="1503" y2="1394.5"/>
			<line class="st5" x1="1501" y1="1394.5" x2="1500" y2="1394.5"/>
		</g>
	</g>
	<g>
		<g>
			<line class="st6" x1="3038" y1="1682.5" x2="1412" y2="1682.5"/>
			<line class="st5" x1="1410" y1="1682.5" x2="1409" y2="1682.5"/>
		</g>
	</g>
	<g>
		<g>
			<line class="st5" x1="2105" y1="1965" x2="2104" y2="1964.7"/>
			<line class="st7" x1="2099.2" y1="1963.3" x2="1017.4" y2="1657.4"/>
			<line class="st5" x1="1015" y1="1656.8" x2="1014" y2="1656.5"/>
		</g>
	</g>
	<g>
		<g>
			<line class="st5" x1="2003" y1="1840.5" x2="2002" y2="1840.5"/>
			<line class="st8" x1="1997" y1="1840.5" x2="-17.5" y2="1835.5"/>
		</g>
	</g>
	<line class="st4" x1="3059" y1="992.5" x2="1500" y2="992.5"/>
	<line class="st4" x1="3058" y1="1556.5" x2="1499" y2="1556.5"/>
	<line class="st4" x1="1273" y1="992.5" x2="-13" y2="992.5"/>
	<line class="st5" x1="1499.5" y1="-9" x2="1499.5" y2="1556"/>
	<line class="st5" x1="1743.5" y1="709" x2="1743.5" y2="1556"/>
	<line class="st5" x1="1743.5" y1="1837" x2="1743.5" y2="2684"/>
	<line class="st5" x1="2003.5" y1="992" x2="2003.5" y2="1556"/>
	<line class="st5" x1="2003.5" y1="1840" x2="2003.5" y2="2421"/>
	<line class="st5" x1="2003.5" y1="2688" x2="2003.5" y2="2969"/>
	<g>
		<line class="st9" x1="949.5" y1="707.5" x2="969.5" y2="707.5"/>
		<line class="st9" x1="959.5" y1="717.1" x2="959.5" y2="697.1"/>
	</g>
	<line class="st5" x1="3008" y1="355.5" x2="1500" y2="355.5"/>
	<g>
		<line class="st9" x1="1489.5" y1="355.5" x2="1509.5" y2="355.5"/>
		<line class="st9" x1="1499.5" y1="365.1" x2="1499.5" y2="345.1"/>
	</g>
	<g>
		<line class="st9" x1="1489.5" y1="707.5" x2="1509.5" y2="707.5"/>
		<line class="st9" x1="1499.5" y1="717.1" x2="1499.5" y2="697.1"/>
	</g>
	<g>
		<line class="st9" x1="1489.5" y1="1078.5" x2="1509.5" y2="1078.5"/>
		<line class="st9" x1="1499.5" y1="1088.1" x2="1499.5" y2="1068.1"/>
	</g>
	<g>
		<line class="st9" x1="1489.5" y1="992.5" x2="1509.5" y2="992.5"/>
		<line class="st9" x1="1499.5" y1="1002.1" x2="1499.5" y2="982.1"/>
	</g>
	<g>
		<line class="st9" x1="1993.2" y1="1556.5" x2="2013.2" y2="1556.5"/>
		<line class="st9" x1="2003.2" y1="1566.1" x2="2003.2" y2="1546.1"/>
	</g>
	<g>
		<line class="st9" x1="1733.5" y1="1556.5" x2="1753.5" y2="1556.5"/>
		<line class="st9" x1="1743.5" y1="1566.1" x2="1743.5" y2="1546.1"/>
	</g>
	<g>
		<line class="st9" x1="1993.2" y1="1840.5" x2="2013.2" y2="1840.5"/>
		<line class="st9" x1="2003.2" y1="1850.1" x2="2003.2" y2="1830.1"/>
	</g>
	<g>
		<line class="st9" x1="1733.5" y1="1839.5" x2="1753.5" y2="1839.5"/>
		<line class="st9" x1="1743.5" y1="1849.1" x2="1743.5" y2="1829.1"/>
	</g>
	<g>
		<line class="st9" x1="1489.6" y1="1556.5" x2="1509.6" y2="1556.5"/>
		<line class="st9" x1="1499.6" y1="1566.1" x2="1499.6" y2="1546.1"/>
	</g>
	<g>
		<line class="st9" x1="1733.5" y1="707.5" x2="1753.5" y2="707.5"/>
		<line class="st9" x1="1743.5" y1="717.1" x2="1743.5" y2="697.1"/>
	</g>
	<g>
		<circle class="st10" cx="1598.3" cy="1081" r="144"/>
	</g>
	<g>
		<g>
			<line class="st11" x1="3017" y1="2420.5" x2="-15.5" y2="2415.5"/>
		</g>
	</g>
	<line class="st5" x1="3017" y1="2685.5" x2="-5" y2="2680.5"/>
	<g>
		<g>
			<line class="st5" x1="3000" y1="2513.5" x2="2999" y2="2513.5"/>
			<line class="st12" x1="2994" y1="2513.5" x2="1391.5" y2="2508.5"/>
			<line class="st5" x1="1389" y1="2508.5" x2="1388" y2="2508.5"/>
		</g>
	</g>
	<g>
		<g>
			<line class="st5" x1="2004" y1="2973.5" x2="2003" y2="2973.5"/>
			<line class="st6" x1="1998" y1="2973.5" x2="-1.5" y2="2968.5"/>
		</g>
	</g>
	<g>
		<line class="st9" x1="1733.5" y1="2418.8" x2="1753.5" y2="2418.8"/>
		<line class="st9" x1="1743.5" y1="2428.4" x2="1743.5" y2="2408.4"/>
	</g>
	<g>
		<line class="st9" x1="1733.5" y1="2683.8" x2="1753.5" y2="2683.8"/>
		<line class="st9" x1="1743.5" y1="2693.4" x2="1743.5" y2="2673.4"/>
	</g>
	<g>
		<line class="st9" x1="1993.6" y1="2419.7" x2="2013.6" y2="2419.7"/>
		<line class="st9" x1="2003.6" y1="2429.4" x2="2003.6" y2="2409.4"/>
	</g>
	<g class="st13">
		<circle class="st14" cx="1274.7" cy="2538.1" r="521.3"/>
	</g>
	<g class="st13">
		<circle class="st15" cx="1367.2" cy="2508" r="83.9"/>
	</g>
	<polyline class="st5" points="1604,1079 1482.7,1165.6 1342,1116 1324,1271 1348,1448 1500.1,1556.5 1389,1626 1384,1654 
		1404,1684 	"/>
	<polyline class="st5" points="1369,2519 1443,2474 1594,2494 1676,2208 1741,2164 2003.5,2421 	"/>
	<line class="st4" x1="1265" y1="3078" x2="5" y2="3078"/>
	<g>
		<g>
			<line class="st6" x1="3002" y1="3212.5" x2="963" y2="3212.5"/>
			<polyline class="st5" points="960.5,3212.5 959.5,3212.5 959.5,3213.5 			"/>
			<line class="st6" x1="959.5" y1="3219" x2="959.5" y2="5710"/>
		</g>
	</g>
	<g>
		<g>
			<line class="st6" x1="3055" y1="3583.5" x2="1503" y2="3583.5"/>
			<line class="st5" x1="1501" y1="3583.5" x2="1500" y2="3583.5"/>
		</g>
	</g>
	<line class="st4" x1="3059" y1="3497.5" x2="1500" y2="3497.5"/>
	<line class="st4" x1="3058" y1="4061.5" x2="1499" y2="4061.5"/>
	<line class="st5" x1="1499.5" y1="3214" x2="1499.5" y2="4061"/>
	<line class="st5" x1="1743.5" y1="3214" x2="1743.5" y2="4996"/>
	<line class="st5" x1="2003.5" y1="3497" x2="2003.5" y2="4616"/>
	<g>
		<line class="st9" x1="949.5" y1="3212.5" x2="969.5" y2="3212.5"/>
		<line class="st9" x1="959.5" y1="3222.1" x2="959.5" y2="3202.1"/>
	</g>
	<g>
		<line class="st9" x1="949.5" y1="3811.6" x2="969.5" y2="3811.6"/>
		<line class="st9" x1="959.5" y1="3821.2" x2="959.5" y2="3801.2"/>
	</g>
	<g>
		<line class="st9" x1="1489.5" y1="3212.5" x2="1509.5" y2="3212.5"/>
		<line class="st9" x1="1499.5" y1="3222.1" x2="1499.5" y2="3202.1"/>
	</g>
	<g>
		<line class="st9" x1="1489.5" y1="3583.5" x2="1509.5" y2="3583.5"/>
		<line class="st9" x1="1499.5" y1="3593.1" x2="1499.5" y2="3573.1"/>
	</g>
	<g>
		<line class="st9" x1="1489.5" y1="3497.5" x2="1509.5" y2="3497.5"/>
		<line class="st9" x1="1499.5" y1="3507.1" x2="1499.5" y2="3487.1"/>
	</g>
	<g>
		<line class="st9" x1="1993.2" y1="4061.5" x2="2013.2" y2="4061.5"/>
		<line class="st9" x1="2003.2" y1="4071.1" x2="2003.2" y2="4051.1"/>
	</g>
	<g>
		<line class="st9" x1="1993.2" y1="4615" x2="2013.2" y2="4615"/>
		<line class="st9" x1="2003.2" y1="4624.7" x2="2003.2" y2="4604.7"/>
	</g>
	<g>
		<line class="st9" x1="1733.5" y1="4061.5" x2="1753.5" y2="4061.5"/>
		<line class="st9" x1="1743.5" y1="4071.1" x2="1743.5" y2="4051.1"/>
	</g>
	<g>
		<line class="st9" x1="1489.6" y1="4061.5" x2="1509.6" y2="4061.5"/>
		<line class="st9" x1="1499.6" y1="4071.1" x2="1499.6" y2="4051.1"/>
	</g>
	<g>
		<line class="st9" x1="1733.5" y1="3212.5" x2="1753.5" y2="3212.5"/>
		<line class="st9" x1="1743.5" y1="3222.1" x2="1743.5" y2="3202.1"/>
	</g>
	<g>
		<circle class="st10" cx="1501.3" cy="4062" r="144"/>
	</g>
	<polygon class="st4" points="1485,3952 1325,4512 1680,4614 1840,4056 	"/>
	<polygon class="st4" points="1319,4347 1405,4682 1610,4643 1535,4305 	"/>
	<polygon class="st4" points="1501.2,3477.2 1772.3,3414.8 1735.5,3247 1468,3306.3 	"/>
	<g>
		<g>
			<line class="st11" x1="3033" y1="4617.5" x2="0.5" y2="4612.5"/>
		</g>
	</g>
	<g>
		<line class="st9" x1="949.6" y1="4614" x2="969.6" y2="4614"/>
		<line class="st9" x1="959.6" y1="4623.7" x2="959.6" y2="4603.7"/>
	</g>
	<polyline class="st5" points="959,3813 1059.4,3655.2 1162.5,3649.2 1266,3502 1331,3458 1589,3586.9 1474,3819.3 1501.3,4062 	"/>
	<circle class="st16" cx="925.5" cy="2224" r="0.5"/>
	<pattern  id="SVGID_1_" xlink:href="#v" patternTransform="matrix(1 0 0 1 9 1)">
	</pattern>
	<path class="st17" d="M1038.5,2667.2c0,0-26.9-45.4-35.6-48.7s-25.9-27-25.9-27l-10.8,3.2l-6.5-8.7l45.4-86.5l27-1.1
		c0,0,147-123.2,148.1-130.8c1.1-7.6,44.3-111.3,44.3-111.3l68.1-6.5l23.8-8.6l55.1-11.9c0,0,32.4,3.2,37.8,5.4
		c5.4,2.2,37.8,14.1,37.8,14.1l16.2-21.6l25.9-18.4l27-2.2c0,0,17.3,75.7,78.9,75.7s63.8-21.6,68.1-21.6c4.3,0,21.6,1.1,21.6,1.1
		l15.1-5.4l14.1-7.6l33.5-8.6c0,0,13-8.6,16.2-11.9s8.6-13,11.9-14.1c3.2-1.1,27-10.8,27-10.8s24.9-5.4,29.2-6.5
		c4.3-1.1,40-7.6,40-7.6l40-25.9c0,0,11.9-16.2,27-23.8s7.6-2.2,15.1-7.6c7.6-5.4,34.6-22.7,34.6-22.7s31.3-18.4,34.6-19.5
		c3.2-1.1,11.9-32.4,17.3-33.5c5.4-1.1,22.7-2.2,25.9-4.3c3.2-2.2,68.1-78.9,80-78.9c11.9,0,54,101.6,57.3,108.1s-1.1-78.9,8.6,29.2
		c9.7,108.1,18.4,149.2,18.4,149.2l-59.4,89.7l-53,46.5l-83.2,200l-8.6,43.3l-24.9,37.9H1034L1038.5,2667.2z"/>
	<path class="st18" d="M470.9,634.6l-10.4-36.8l-3.1-17.1c0,0,6.5,1.1,11-1.9c4.5-3,4.5-3,4.5-3s6.1,2.1,11-1.9s18.2-25.7,18.2-25.7
		s25.8-16.2,5.6-23.3c0,0-37.6-62.4-44.5-59.1c-6.9,3.3-5.9-38.7-5.9-38.7s5.6-9.5,6-13.9c0.4-4.4,5.8-19.7,5.8-19.7l66.7-95.7
		l125.3,13.7l105.9-34.6l-18.4-129.7L726,116.9l58.4-120L926,0l91.9,121.2l61.8,154.9c0,0,86.4,28,92.5,33.5
		c6.1,5.6,27.7,68.1,27.7,68.1l85.1,93.9c0,0,90.3,43.1,98.1,46.9c7.8,3.9-12.5,67.8-11.9,72.6c0.6,4.8-19.1,87.2-26.1,90.5V706H959
		l-94.6,85.3l-87.6-40l-163.2-61.6l-73.5-38.9l-47.2,28.1l-5.4-17.3l-4.3-5.4L470.9,634.6z"/>
	<pattern  id="SVGID_2_" xlink:href="#v" patternTransform="matrix(1 0 0 1 15 -1)">
	</pattern>
	<path class="st19" d="M2671.7,1557h488.5l18.8,43.5c0,0-9.2,23.6-8.5,25.6c0.7,2,3.3,27.5,4.6,29.5c1.3,2,24.3,24.9,24.3,24.9
		l10.7,8.3l-12.6,83.4l-36.7,17.7l-22.9,14.4l-17,7.9l-102.7,5.2l-84.3-17.6l-63.7,25.1l-137,6.9l-78.7-27.5c0,0,9.2-15.1-11.1-24.9
		c-20.3-9.8-7.9-3.3-38.7-14.4s-36.1-14.4-55.1-19.7c-19-5.2-36.7-15.1-36.7-15.1l-4.6-54.4l-7.2-24.9l11.8-22.3
		c0,0-3.3-24.3,27.5-11.1c30.8,13.1,53.8-1.3,53.8-13.1s7.2-22.9,7.2-22.9s20.3-8.5,22.3-8.5c2,0,21-5.2,21-5.2L2671.7,1557z"/>
	<pattern  id="SVGID_3_" xlink:href="#v" patternTransform="matrix(1 0 0 1 15 -1)">
	</pattern>
	<path class="st20" d="M959,4612h400l78.2-30l20.5-17.3l7.6-17.3c0,0,34.6-38.9,36.8-63.8c2.2-24.9,11.9-47.6,11.9-47.6l7.6-35.7
		l-44.3-10.8c0,0-109.2,10.8-117.8-9.7c-8.6-20.5-5.4-75.7-5.4-75.7s151.3-58.4-14.1-75.7c-165.4-17.3-194.6-19.5-194.6-19.5
		l-116.7,7.6c0,0,1.1,102.7-121.1,108.1c-122.1,5.4-212.9,15.1-212.9,15.1s17.3,107,17.3,112.4s83.2,74.6,83.2,74.6
		s-104.8-35.7,10.8,7.6s107,48.6,105.9,51.9c-1.1,3.2,17.3,20.5,17.3,20.5L959,4612z"/>
	<pattern  id="SVGID_4_" xlink:href="#v" patternTransform="matrix(-0.9386 -0.345 0.345 -0.9386 -15928.3828 -3284.0415)">
	</pattern>
	<path class="st21" d="M2296.5,4937.9l-375.4-138l-83.8,1.2l-25.2,9.1l-13.1,13.6c0,0-45.9,24.6-56.5,47.2
		c-10.6,22.6-27.6,40.5-27.6,40.5l-19.4,30.9l37.9,25.4c0,0,106.2,27.5,107.2,49.8c1,22.3-21,72.9-21,72.9s-162.2,2.6-12.9,75.9
		s175.9,85.4,175.9,85.4l112.2,33.2c0,0,34.4-96.8,150.9-59.7c116.5,37.1,205.1,59.3,205.1,59.3s20.7-106.4,22.5-111.5
		c1.9-5.1-52.4-98.7-52.4-98.7s86.1,69.6-7.5-10.8c-93.6-80.5-83.7-82.6-81.5-85.2c2.1-2.7-9.1-25.2-9.1-25.2L2296.5,4937.9z"/>
</g>
</svg>
