<svg xmlns="http://www.w3.org/2000/svg" width="133.171" height="101.089" viewBox="0 0 133.171 101.089">
  <g id="Group_773" data-name="Group 773" transform="translate(-136.25 -255.16)">
    <g id="Group_625" data-name="Group 625" transform="translate(180.619 287.745)">
      <path id="Path_386" data-name="Path 386" d="M292.614,400.728l-.79.435a1.345,1.345,0,0,0-.441-.323,1.317,1.317,0,0,0-.51-.09,1.189,1.189,0,0,0-.862.318,1.081,1.081,0,0,0-.329.814,1.046,1.046,0,0,0,.317.788,1.147,1.147,0,0,0,.831.306,1.212,1.212,0,0,0,.993-.435l.748.513a2.306,2.306,0,0,1-3.281.2,1.965,1.965,0,0,1,.476-3.122,2.289,2.289,0,0,1,1.1-.265,2.231,2.231,0,0,1,1.012.224A1.922,1.922,0,0,1,292.614,400.728Z" transform="translate(-288.726 -398.406)" fill="#fff"/>
      <path id="Path_387" data-name="Path 387" d="M298.369,399.866a2,2,0,0,1,1.006.268,1.93,1.93,0,0,1,.735.726,1.953,1.953,0,0,1,.265.991,1.984,1.984,0,0,1-.266,1,1.921,1.921,0,0,1-.725.729,2,2,0,0,1-1.012.262,1.887,1.887,0,0,1-1.389-.579,2,2,0,0,1,.075-2.884A1.9,1.9,0,0,1,298.369,399.866Zm.015.894a.976.976,0,0,0-.736.308,1.092,1.092,0,0,0-.294.787,1.113,1.113,0,0,0,.291.8.973.973,0,0,0,.736.306.984.984,0,0,0,.742-.309,1.22,1.22,0,0,0,.005-1.587A.983.983,0,0,0,298.385,400.76Z" transform="translate(-291.849 -398.406)" fill="#fff"/>
      <path id="Path_388" data-name="Path 388" d="M304.4,399.963h.95v.388a2.263,2.263,0,0,1,.585-.379,1.407,1.407,0,0,1,.536-.107,1.3,1.3,0,0,1,.955.393,1.351,1.351,0,0,1,.329.988v2.5h-.939V402.09a4.206,4.206,0,0,0-.061-.9.611.611,0,0,0-.212-.338.59.59,0,0,0-.373-.117.7.7,0,0,0-.494.193,1.027,1.027,0,0,0-.286.533,4.3,4.3,0,0,0-.042.768v1.517h-.95Z" transform="translate(-295.098 -398.406)" fill="#fff"/>
      <path id="Path_389" data-name="Path 389" d="M311.6,399.963h.949v.388a2.263,2.263,0,0,1,.585-.379,1.408,1.408,0,0,1,.536-.107,1.3,1.3,0,0,1,.955.393,1.352,1.352,0,0,1,.33.988v2.5h-.939V402.09a4.193,4.193,0,0,0-.061-.9.614.614,0,0,0-.211-.338.593.593,0,0,0-.373-.117.7.7,0,0,0-.494.193,1.035,1.035,0,0,0-.286.533,4.294,4.294,0,0,0-.042.768v1.517H311.6Z" transform="translate(-298.026 -398.406)" fill="#fff"/>
      <path id="Path_390" data-name="Path 390" d="M322.471,402.13h-3.049a1.016,1.016,0,0,0,.353.642,1.111,1.111,0,0,0,.732.238,1.266,1.266,0,0,0,.914-.372l.8.376a1.888,1.888,0,0,1-.716.628,2.243,2.243,0,0,1-.991.2,1.958,1.958,0,0,1-1.45-.561,1.911,1.911,0,0,1-.56-1.406,1.976,1.976,0,0,1,.558-1.438,1.876,1.876,0,0,1,1.4-.572,1.946,1.946,0,0,1,1.453.572,2.067,2.067,0,0,1,.56,1.511Zm-.949-.748a.953.953,0,0,0-.371-.515,1.075,1.075,0,0,0-.643-.2,1.136,1.136,0,0,0-.7.223,1.239,1.239,0,0,0-.348.49Z" transform="translate(-300.832 -398.406)" fill="#fff"/>
      <path id="Path_391" data-name="Path 391" d="M330.061,400.728l-.79.435a1.349,1.349,0,0,0-.44-.323,1.32,1.32,0,0,0-.51-.09,1.189,1.189,0,0,0-.862.318,1.083,1.083,0,0,0-.329.814,1.046,1.046,0,0,0,.317.788,1.149,1.149,0,0,0,.832.306,1.211,1.211,0,0,0,.992-.435l.748.513a2.306,2.306,0,0,1-3.281.2,1.966,1.966,0,0,1,.477-3.122,2.285,2.285,0,0,1,1.1-.265,2.231,2.231,0,0,1,1.012.224A1.923,1.923,0,0,1,330.061,400.728Z" transform="translate(-303.951 -398.406)" fill="#fff"/>
      <path id="Path_392" data-name="Path 392" d="M334.026,397.681h.95v1.394h.563v.817h-.563v2.966h-.95v-2.966h-.487v-.817h.487Z" transform="translate(-306.945 -397.517)" fill="#fff"/>
      <path id="Path_393" data-name="Path 393" d="M337.974,397.4a.581.581,0,0,1,.428.181.6.6,0,0,1,.179.438.592.592,0,0,1-.177.433.574.574,0,0,1-.423.179.581.581,0,0,1-.431-.183.609.609,0,0,1-.179-.443.6.6,0,0,1,.6-.605Zm-.474,1.558h.949v3.783H337.5Z" transform="translate(-308.503 -397.405)" fill="#fff"/>
      <path id="Path_394" data-name="Path 394" d="M342.291,399.866a2,2,0,0,1,1.006.268,1.93,1.93,0,0,1,.735.726,1.952,1.952,0,0,1,.264.991,1.983,1.983,0,0,1-.266,1,1.918,1.918,0,0,1-.725.729,2,2,0,0,1-1.012.262,1.886,1.886,0,0,1-1.389-.579,2,2,0,0,1,.075-2.884A1.9,1.9,0,0,1,342.291,399.866Zm.015.894a.978.978,0,0,0-.737.308,1.094,1.094,0,0,0-.294.787,1.113,1.113,0,0,0,.291.8.973.973,0,0,0,.736.306.984.984,0,0,0,.742-.309,1.22,1.22,0,0,0,.005-1.587A.983.983,0,0,0,342.307,400.76Z" transform="translate(-309.706 -398.406)" fill="#fff"/>
      <path id="Path_395" data-name="Path 395" d="M348.322,399.963h.95v.388a2.253,2.253,0,0,1,.585-.379,1.407,1.407,0,0,1,.536-.107,1.3,1.3,0,0,1,.954.393,1.349,1.349,0,0,1,.33.988v2.5h-.939V402.09a4.206,4.206,0,0,0-.061-.9.611.611,0,0,0-.212-.338.591.591,0,0,0-.373-.117.7.7,0,0,0-.494.193,1.027,1.027,0,0,0-.286.533,4.3,4.3,0,0,0-.042.768v1.517h-.95Z" transform="translate(-312.955 -398.406)" fill="#fff"/>
      <path id="Path_396" data-name="Path 396" d="M356.022,404.735a.53.53,0,0,1,.386.158.522.522,0,0,1,.16.384.546.546,0,0,1-1.092,0,.52.52,0,0,1,.16-.384A.528.528,0,0,1,356.022,404.735Z" transform="translate(-315.863 -400.385)" fill="#fff"/>
      <path id="Path_397" data-name="Path 397" d="M359.38,404.735a.528.528,0,0,1,.386.158.52.52,0,0,1,.16.384.547.547,0,1,1-.546-.542Z" transform="translate(-317.229 -400.385)" fill="#fff"/>
      <path id="Path_398" data-name="Path 398" d="M362.737,404.735a.53.53,0,0,1,.386.158.522.522,0,0,1,.16.384.546.546,0,0,1-1.092,0,.52.52,0,0,1,.16-.384A.527.527,0,0,1,362.737,404.735Z" transform="translate(-318.594 -400.385)" fill="#fff"/>
    </g>
    <g id="Group_624" data-name="Group 624" transform="translate(136.25 255.16)" opacity="0.24">
      <g id="Group_622" data-name="Group 622">
        <path id="Path_382" data-name="Path 382" d="M261.142,482.536H220.788a6.825,6.825,0,0,1-5.69-10.594L237.383,438.3l11.379,7.537-15.268,23.049h27.648Z" transform="translate(-213.963 -381.447)" fill="#fff"/>
        <path id="Path_383" data-name="Path 383" d="M393.016,482.536H352.662V468.887h27.647l-15.268-23.049,11.379-7.537,22.285,33.642a6.825,6.825,0,0,1-5.69,10.594Z" transform="translate(-270.351 -381.447)" fill="#fff"/>
        <path id="Path_384" data-name="Path 384" d="M320.493,386.735l-16.6-25.054-16.6,25.054L275.923,379.2l22.285-33.643a6.824,6.824,0,0,1,11.379,0L331.872,379.2Z" transform="translate(-239.153 -342.498)" fill="#fff"/>
      </g>
      <g id="Group_623" data-name="Group 623" transform="translate(59.896 45.891)">
        <path id="Path_385" data-name="Path 385" d="M314.892,419.827h10.28l-1.261,26.192h-7.419Z" transform="translate(-314.892 -419.827)" fill="#fff"/>
        <rect id="Rectangle_631" data-name="Rectangle 631" width="9.213" height="7.564" transform="translate(0.824 31.089)" fill="#fff"/>
      </g>
    </g>
    <g id="Group_621" data-name="Group 621" transform="translate(138.452 306.829)">
      <path id="Path_362" data-name="Path 362" d="M237.235,446.907v1.459l-.927-1.425-3.646.132,4.7,7.212h3.169v-7.5Z" transform="translate(-223.766 -436.566)" fill="#fff"/>
      <path id="Path_363" data-name="Path 363" d="M222.561,454.548h3.295v-7.115l-3.295.119Z" transform="translate(-219.66 -436.828)" fill="#fff"/>
      <path id="Path_364" data-name="Path 364" d="M238.775,430.3H235.48v9.932l3.295-.119Z" transform="translate(-224.912 -429.861)" fill="#fff"/>
      <path id="Path_365" data-name="Path 365" d="M220.833,430.3h-3.161v10.315l3.295-.119v-4.241l2.7,4.143,3.646-.132Z" transform="translate(-217.673 -429.861)" fill="#fff"/>
      <path id="Path_366" data-name="Path 366" d="M265.831,445.621a5.687,5.687,0,0,1-1.607,3.692,5.366,5.366,0,0,1-3.993,1.695,5.655,5.655,0,0,1-3.676-1.306,5.386,5.386,0,0,1-2-3.672l-3.316.12a8.9,8.9,0,0,0,2.52,5.352,9.037,9.037,0,0,0,12.805.071,8.709,8.709,0,0,0,2.593-6.072Z" transform="translate(-231.318 -436.043)" fill="#fff"/>
      <path id="Path_367" data-name="Path 367" d="M249.566,438.707a5.815,5.815,0,0,1,1.638-4.249,5.671,5.671,0,0,1,8.08.041,5.785,5.785,0,0,1,1.661,4.184c0,.169-.03.322-.042.485l3.322-.12c0-.115.015-.226.015-.341a8.849,8.849,0,0,0-2.644-6.484,8.594,8.594,0,0,0-6.317-2.66,9.06,9.06,0,0,0-7.831,4.519,8.972,8.972,0,0,0-1.2,4.565,9.978,9.978,0,0,0,.059,1.05l3.316-.12A7.238,7.238,0,0,1,249.566,438.707Z" transform="translate(-229.29 -429.563)" fill="#fff"/>
      <path id="Path_368" data-name="Path 368" d="M297.962,436.894a22.255,22.255,0,0,1-2.417-2.224,1.337,1.337,0,0,1-.295-.824,1.01,1.01,0,0,1,.412-.783,1.592,1.592,0,0,1,1.061-.347,3.464,3.464,0,0,1,2.618,1.789l2.44-2.153a8.995,8.995,0,0,0-2.539-2.189,5.348,5.348,0,0,0-2.468-.6,4.762,4.762,0,0,0-3.387,1.288,4.088,4.088,0,0,0-1.373,3.089,4.518,4.518,0,0,0,.824,2.5,12.979,12.979,0,0,0,2.037,2.17l4.888-.177C299.364,438.079,298.779,437.578,297.962,436.894Z" transform="translate(-247.896 -429.563)" fill="#fff"/>
      <path id="Path_369" data-name="Path 369" d="M304.579,444.917c-.094-.1-.27-.258-.485-.449l-4.888.177c.476.43,1,.884,1.618,1.39a12.514,12.514,0,0,1,1.921,1.8,1.966,1.966,0,0,1,.436,1.177,1.468,1.468,0,0,1-.577,1.142,2.117,2.117,0,0,1-1.426.494q-1.626,0-2.876-2.295l-2.77,1.671a7.156,7.156,0,0,0,2.351,2.847,5.712,5.712,0,0,0,3.222.906,5.367,5.367,0,0,0,3.84-1.389,4.626,4.626,0,0,0,1.473-3.519,4.823,4.823,0,0,0-.418-2.018A6.885,6.885,0,0,0,304.579,444.917Z" transform="translate(-249.327 -435.623)" fill="#fff"/>
      <path id="Path_370" data-name="Path 370" d="M317.157,430.3h-3.271v8.246l3.271-.119Z" transform="translate(-256.788 -429.861)" fill="#fff"/>
      <path id="Path_371" data-name="Path 371" d="M318.773,444.067v9.064h3.271v-9.182Z" transform="translate(-258.776 -435.412)" fill="#fff"/>
      <path id="Path_372" data-name="Path 372" d="M329.372,434.482a5.866,5.866,0,0,1,4.281-1.695,6.861,6.861,0,0,1,5.136,2.33l2.32-2.294a9.69,9.69,0,0,0-3.248-2.424,10.682,10.682,0,0,0-4.225-.836,8.953,8.953,0,0,0-7.013,3.024,8.638,8.638,0,0,0-2.249,5.432l3.337-.121A5.509,5.509,0,0,1,329.372,434.482Z" transform="translate(-261.053 -429.563)" fill="#fff"/>
      <path id="Path_373" data-name="Path 373" d="M338.485,444.2v3.095H343.5a5.051,5.051,0,0,1-1.891,2.247,5.416,5.416,0,0,1-2.88.718,6.089,6.089,0,0,1-4.418-1.742,5.7,5.7,0,0,1-1.79-4.248,6.131,6.131,0,0,1,.065-.7l-3.337.12c-.01.181-.023.361-.023.546a9.3,9.3,0,0,0,1.23,4.672,8.562,8.562,0,0,0,3.342,3.336,9.744,9.744,0,0,0,4.808,1.171,8.684,8.684,0,0,0,4.389-1.071,8.227,8.227,0,0,0,3.048-3.107,8.474,8.474,0,0,0,1.177-4.307l-.024-.729Z" transform="translate(-263.024 -435.256)" fill="#fff"/>
      <path id="Path_374" data-name="Path 374" d="M364.659,452.455h3.295v-10.17l-3.295.119Z" transform="translate(-277.431 -434.735)" fill="#fff"/>
      <path id="Path_375" data-name="Path 375" d="M380.873,430.3h-3.3v6.877l3.3-.119Z" transform="translate(-282.683 -429.861)" fill="#fff"/>
      <path id="Path_376" data-name="Path 376" d="M378,441.759v4.514l-2.868-4.41-3.65.132,6.643,10.2H381.3V441.639Z" transform="translate(-280.205 -434.473)" fill="#fff"/>
      <path id="Path_377" data-name="Path 377" d="M362.932,430.3h-3.161v7.26l3.295-.119v-1.186l.755,1.159,3.65-.132Z" transform="translate(-275.443 -429.861)" fill="#fff"/>
      <path id="Path_378" data-name="Path 378" d="M398.662,434.886l.679,1.748,3.362-.122-2.39-6.215H396.97l-2.512,6.514,3.5-.127Z" transform="translate(-289.546 -429.861)" fill="#fff"/>
      <path id="Path_379" data-name="Path 379" d="M401.377,440.848l1.63,4.2h-4.631L400,440.9l-3.5.127-4.163,10.8h3.424l1.408-3.566h7.064l1.354,3.566h3.424l-4.267-11.1Z" transform="translate(-288.681 -434.101)" fill="#fff"/>
      <path id="Path_380" data-name="Path 380" d="M423.13,430.3h-3.295v5.968l3.295-.119Z" transform="translate(-299.862 -429.861)" fill="#fff"/>
      <path id="Path_381" data-name="Path 381" d="M428.017,440.109l-3.295.119V451.57h8.1v-3.142h-4.8Z" transform="translate(-301.85 -433.85)" fill="#fff"/>
    </g>
  </g>
</svg>
