<svg xmlns="http://www.w3.org/2000/svg" xmlns:xlink="http://www.w3.org/1999/xlink" width="200" height="200" viewBox="0 0 200 200">
  <defs>
    <clipPath id="clip-bubble_3">
      <rect width="200" height="200"/>
    </clipPath>
  </defs>
  <g id="bubble_3" data-name="bubble–3" clip-path="url(#clip-bubble_3)">
    <g id="Path_1211" data-name="Path 1211" transform="translate(7 7)" fill="none" stroke-linecap="round">
      <path d="M93.5,0A93.5,93.5,0,1,1,0,93.5,93.5,93.5,0,0,1,93.5,0Z" stroke="none"/>
      <path d="M 93.5 3 C 87.35773468017578 3 81.22020721435547 3.618637084960938 75.25791931152344 4.83868408203125 C 69.44868469238281 6.027420043945312 63.73455047607422 7.801177978515625 58.27423095703125 10.1107177734375 C 52.91239929199219 12.37858581542969 47.74066162109375 15.18572998046875 42.90267944335938 18.45420837402344 C 38.10992431640625 21.692138671875 33.60289001464844 25.41078186035156 29.5068359375 29.5068359375 C 25.41078186035156 33.60289001464844 21.692138671875 38.10992431640625 18.45420837402344 42.90267944335938 C 15.18572998046875 47.74066162109375 12.37858581542969 52.91239929199219 10.1107177734375 58.27423095703125 C 7.801177978515625 63.73455047607422 6.027420043945312 69.44868469238281 4.83868408203125 75.25791931152344 C 3.618637084960938 81.22020721435547 3 87.35773468017578 3 93.5 C 3 99.64226531982422 3.618637084960938 105.7797927856445 4.83868408203125 111.7420806884766 C 6.027420043945312 117.5513153076172 7.801177978515625 123.2654418945312 10.1107177734375 128.7257690429688 C 12.37858581542969 134.0876007080078 15.18572998046875 139.2593383789062 18.45420837402344 144.0973205566406 C 21.692138671875 148.8900756835938 25.41078186035156 153.3971099853516 29.5068359375 157.4931640625 C 33.60289001464844 161.5892028808594 38.10992431640625 165.307861328125 42.90267944335938 168.5457916259766 C 47.74066162109375 171.8142700195312 52.91239929199219 174.6214141845703 58.27423095703125 176.8892822265625 C 63.73455047607422 179.1988220214844 69.44868469238281 180.9725799560547 75.25791931152344 182.1613159179688 C 81.22020721435547 183.3813629150391 87.35773468017578 184 93.5 184 C 99.64226531982422 184 105.7797927856445 183.3813629150391 111.7420806884766 182.1613159179688 C 117.5513153076172 180.9725799560547 123.2654418945312 179.1988220214844 128.7257690429688 176.8892822265625 C 134.0876007080078 174.6214141845703 139.2593383789062 171.8142700195312 144.0973205566406 168.5457916259766 C 148.8900756835938 165.307861328125 153.3971099853516 161.5892028808594 157.4931640625 157.4931640625 C 161.5892028808594 153.3971099853516 165.307861328125 148.8900756835938 168.5457916259766 144.0973205566406 C 171.8142700195312 139.2593383789062 174.6214141845703 134.0876007080078 176.8892822265625 128.7257690429688 C 179.1988220214844 123.2654418945312 180.9725799560547 117.5513153076172 182.1613159179688 111.7420806884766 C 183.3813629150391 105.7797927856445 184 99.64226531982422 184 93.5 C 184 87.35773468017578 183.3813629150391 81.22020721435547 182.1613159179688 75.25791931152344 C 180.9725799560547 69.44868469238281 179.1988220214844 63.73455047607422 176.8892822265625 58.27423095703125 C 174.6214141845703 52.91239929199219 171.8142700195312 47.74066162109375 168.5457916259766 42.90267944335938 C 165.307861328125 38.10992431640625 161.5892028808594 33.60289001464844 157.4931640625 29.5068359375 C 153.3971099853516 25.41078186035156 148.8900756835938 21.692138671875 144.0973205566406 18.45420837402344 C 139.2593383789062 15.18572998046875 134.0876007080078 12.37858581542969 128.7257690429688 10.1107177734375 C 123.2654418945312 7.801177978515625 117.5513153076172 6.027420043945312 111.7420806884766 4.83868408203125 C 105.7797927856445 3.618637084960938 99.64226531982422 3 93.5 3 M 93.5 0 C 145.1386108398438 0 187 41.86138916015625 187 93.5 C 187 145.1386108398438 145.1386108398438 187 93.5 187 C 41.86138916015625 187 0 145.1386108398438 0 93.5 C 0 41.86138916015625 41.86138916015625 0 93.5 0 Z" stroke="none" fill="#fff"/>
    </g>
    <path id="Path_1222" data-name="Path 1222" d="M16.25-20h10V0h-5V-4.375L16.875,0H1.25V-5Zm5,14.375V-15H18.325l-10,10H14.8l3.55-3.525ZM28.75-20h25v5h-10V-5h10V0h-25V-5h10V-15h-10Z" transform="translate(73 109)" fill="#fff"/>
    <g id="Ellipse_480" data-name="Ellipse 480" transform="translate(20 20)" fill="none" stroke="#1be6b2" stroke-width="10">
      <circle cx="80" cy="80" r="80" stroke="none"/>
      <circle cx="80" cy="80" r="75" fill="none"/>
    </g>
    <path id="Path_1221" data-name="Path 1221" d="M4.888-9.8h.841a1,1,0,0,1,.619.174,1.215,1.215,0,0,1,.373.557L10.151,0H9.659l-1.2-3.192H2.14L.95,0H.465L3.89-9.071a1.226,1.226,0,0,1,.376-.554A1,1,0,0,1,4.888-9.8Zm-.6.943-2,5.25H8.319L6.33-8.859a.935.935,0,0,0-.26-.4.678.678,0,0,0-.431-.12H4.97a.663.663,0,0,0-.427.12A.955.955,0,0,0,4.286-8.859ZM18.655-9.8V0h-.417V-1.538a2.262,2.262,0,0,1-.906,1.131A2.883,2.883,0,0,1,15.7.027H14.636A2.914,2.914,0,0,1,12.53-.667a2.607,2.607,0,0,1-.718-1.965V-4.02a2.63,2.63,0,0,1,.718-1.972,2.9,2.9,0,0,1,2.105-.7H15.7a2.84,2.84,0,0,1,1.61.431,2.337,2.337,0,0,1,.913,1.121V-9.8ZM15.771-.362a2.361,2.361,0,0,0,1.808-.687,2.359,2.359,0,0,0,.646-1.678V-3.917a2.627,2.627,0,0,0-.26-1.172,2.1,2.1,0,0,0-.824-.872A2.543,2.543,0,0,0,15.8-6.3H14.7a2.568,2.568,0,0,0-1.829.6,2.251,2.251,0,0,0-.639,1.723v1.306a2.229,2.229,0,0,0,.639,1.716A2.587,2.587,0,0,0,14.7-.362Zm4.7-6.289h.438L23.14-.868a.831.831,0,0,0,.243.373.706.706,0,0,0,.427.106h.4A.754.754,0,0,0,24.654-.5a.8.8,0,0,0,.25-.373l2.208-5.783h.451L25.307-.745a1.252,1.252,0,0,1-.359.574,1.053,1.053,0,0,1-.66.171h-.547a1.055,1.055,0,0,1-.66-.174,1.245,1.245,0,0,1-.366-.571ZM31.76-6.692h.882q2.427,0,2.427,2.017v3.418a.85.85,0,0,0,.239.673,1.079,1.079,0,0,0,.725.208h.4v.349A3.527,3.527,0,0,1,35.923,0q-1.251,0-1.251-1.094l.014-.28A2.152,2.152,0,0,1,33.551-.3a4.681,4.681,0,0,1-1.914.359A4.124,4.124,0,0,1,29.449-.4a1.518,1.518,0,0,1-.7-1.367,1.709,1.709,0,0,1,.561-1.391,2.751,2.751,0,0,1,1.777-.468h3.555v-1a1.515,1.515,0,0,0-.53-1.3,2.561,2.561,0,0,0-1.542-.393h-.766a2.886,2.886,0,0,0-1.538.335,1.226,1.226,0,0,0-.526,1.121v.267h-.4V-4.9a1.553,1.553,0,0,1,.608-1.357A3.116,3.116,0,0,1,31.76-6.692ZM31.691-.321a4.952,4.952,0,0,0,1.09-.116,3.656,3.656,0,0,0,.94-.345,1.771,1.771,0,0,0,.673-.629,1.688,1.688,0,0,0,.25-.913v-.923H31.158a2.547,2.547,0,0,0-1.521.352,1.316,1.316,0,0,0-.461,1.118,1.188,1.188,0,0,0,.6,1.1A3.944,3.944,0,0,0,31.691-.321Zm6.364-6.33h.417v1.511a2.292,2.292,0,0,1,.875-1.118,2.716,2.716,0,0,1,1.565-.42h.937a2.525,2.525,0,0,1,1.887.656,2.556,2.556,0,0,1,.643,1.866V0h-.417V-4.1A2.2,2.2,0,0,0,43.4-5.729a2.223,2.223,0,0,0-1.641-.561h-.9a2.289,2.289,0,0,0-1.764.677,2.349,2.349,0,0,0-.629,1.661V0h-.417Zm11.471-.041h1.251q2.632,0,2.632,2.017v.321h-.424v-.267a1.425,1.425,0,0,0-.6-1.292A3.078,3.078,0,0,0,50.7-6.3H49.588a2.5,2.5,0,0,0-1.788.6,2.254,2.254,0,0,0-.639,1.719v1.306A2.238,2.238,0,0,0,47.8-.96a2.513,2.513,0,0,0,1.791.6H50.7a2.992,2.992,0,0,0,1.688-.4,1.538,1.538,0,0,0,.595-1.374v-.28h.424v.335q0,2.112-2.646,2.112H49.526a2.855,2.855,0,0,1-2.061-.694,2.581,2.581,0,0,1-.721-1.952V-4.033a2.6,2.6,0,0,1,.725-1.958A2.84,2.84,0,0,1,49.526-6.692Zm8.846,0h1.265A2.66,2.66,0,0,1,61.643-6a2.567,2.567,0,0,1,.667,1.856v.95H55.966v.533A2.241,2.241,0,0,0,56.608-.93a2.589,2.589,0,0,0,1.825.595h1.2a4.449,4.449,0,0,0,.854-.075,2.645,2.645,0,0,0,.7-.236,1.162,1.162,0,0,0,.485-.451,1.345,1.345,0,0,0,.171-.694v-.335h.424v.362a1.479,1.479,0,0,1-.714,1.347,3.484,3.484,0,0,1-1.863.444H58.372a2.921,2.921,0,0,1-2.1-.694,2.568,2.568,0,0,1-.728-1.952V-4.033A2.582,2.582,0,0,1,56.28-6,2.914,2.914,0,0,1,58.372-6.692Zm-2.406,2.7v.438h5.927v-.52a2.284,2.284,0,0,0-.571-1.644,2.32,2.32,0,0,0-1.753-.6H58.434a2.589,2.589,0,0,0-1.825.595A2.241,2.241,0,0,0,55.966-3.992ZM71.278-9.8V0h-.417V-1.538a2.262,2.262,0,0,1-.906,1.131,2.883,2.883,0,0,1-1.63.434H67.259a2.914,2.914,0,0,1-2.105-.694,2.607,2.607,0,0,1-.718-1.965V-4.02a2.63,2.63,0,0,1,.718-1.972,2.9,2.9,0,0,1,2.105-.7h1.066a2.84,2.84,0,0,1,1.61.431,2.337,2.337,0,0,1,.913,1.121V-9.8ZM68.394-.362A2.361,2.361,0,0,0,70.2-1.049a2.359,2.359,0,0,0,.646-1.678V-3.917a2.627,2.627,0,0,0-.26-1.172,2.1,2.1,0,0,0-.824-.872A2.543,2.543,0,0,0,68.421-6.3h-1.1a2.568,2.568,0,0,0-1.829.6,2.251,2.251,0,0,0-.639,1.723v1.306a2.229,2.229,0,0,0,.639,1.716,2.587,2.587,0,0,0,1.829.595Z" transform="translate(64 79)" fill="#fff"/>
    <path id="Path_1223" data-name="Path 1223" d="M1.579-9.8H2.03V0H1.579ZM5-6.651h.417v1.511a2.292,2.292,0,0,1,.875-1.118,2.716,2.716,0,0,1,1.565-.42h.937a2.525,2.525,0,0,1,1.887.656,2.556,2.556,0,0,1,.643,1.866V0H10.9V-4.1a2.2,2.2,0,0,0-.561-1.627A2.223,2.223,0,0,0,8.7-6.289h-.9a2.289,2.289,0,0,0-1.764.677,2.349,2.349,0,0,0-.629,1.661V0H5Zm8.019,0h1.723V-9.2h.417v2.55h2.379v.4H15.155v4.293A1.71,1.71,0,0,0,15.5-.718a1.645,1.645,0,0,0,1.152.328H17.8v.376a11.579,11.579,0,0,1-1.2.027A1.964,1.964,0,0,1,15.179-.42a2.041,2.041,0,0,1-.441-1.487V-6.255H13.016Zm9.037-.041h1.265A2.66,2.66,0,0,1,25.324-6a2.567,2.567,0,0,1,.667,1.856v.95H19.646v.533A2.241,2.241,0,0,0,20.289-.93a2.589,2.589,0,0,0,1.825.595h1.2a4.449,4.449,0,0,0,.854-.075,2.645,2.645,0,0,0,.7-.236,1.162,1.162,0,0,0,.485-.451,1.345,1.345,0,0,0,.171-.694v-.335h.424v.362a1.479,1.479,0,0,1-.714,1.347,3.484,3.484,0,0,1-1.863.444H22.053a2.921,2.921,0,0,1-2.1-.694,2.568,2.568,0,0,1-.728-1.952V-4.033A2.581,2.581,0,0,1,19.961-6,2.914,2.914,0,0,1,22.053-6.692Zm-2.406,2.7v.438h5.927v-.52A2.284,2.284,0,0,0,25-5.718a2.32,2.32,0,0,0-1.753-.6H22.114a2.589,2.589,0,0,0-1.825.595A2.241,2.241,0,0,0,19.646-3.992ZM35.014-6.651V.137a2.661,2.661,0,0,1-.714,2,2.964,2.964,0,0,1-2.143.694H31.042a3.417,3.417,0,0,1-1.921-.482A1.588,1.588,0,0,1,28.4.937V.629h.4V.9a1.307,1.307,0,0,0,.311.9,1.667,1.667,0,0,0,.8.5,4.2,4.2,0,0,0,1.169.144h1.046Q34.6,2.434,34.6.082v-1.75a2.3,2.3,0,0,1-.913,1.107,2.875,2.875,0,0,1-1.61.424h-1.08a2.9,2.9,0,0,1-2.105-.7A2.618,2.618,0,0,1,28.171-2.8V-4.02a2.63,2.63,0,0,1,.718-1.972,2.9,2.9,0,0,1,2.105-.7h1.08a2.84,2.84,0,0,1,1.61.431A2.337,2.337,0,0,1,34.6-5.141V-6.651Zm-2.9,6.118A2.424,2.424,0,0,0,33.94-1.21,2.3,2.3,0,0,0,34.6-2.871v-1.08a2.335,2.335,0,0,0-.646-1.671,2.374,2.374,0,0,0-1.808-.68H31.056a2.568,2.568,0,0,0-1.829.6,2.251,2.251,0,0,0-.639,1.723v1.135a2.229,2.229,0,0,0,.639,1.716,2.587,2.587,0,0,0,1.829.595Zm5.667-6.118h.4v1.415a2.17,2.17,0,0,1,.79-1.049,2.262,2.262,0,0,1,1.35-.393H41.1a2.665,2.665,0,0,1,1.647.42,1.531,1.531,0,0,1,.54,1.289v.4h-.41V-4.9a1.218,1.218,0,0,0-.441-1.046,2.262,2.262,0,0,0-1.35-.328h-.827a1.831,1.831,0,0,0-1.524.673A2.555,2.555,0,0,0,38.2-3.965V0h-.417Zm9.851-.041h.882q2.427,0,2.427,2.017v3.418a.85.85,0,0,0,.239.673,1.079,1.079,0,0,0,.725.208h.4v.349A3.527,3.527,0,0,1,51.8,0q-1.251,0-1.251-1.094l.014-.28A2.152,2.152,0,0,1,49.424-.3,4.681,4.681,0,0,1,47.51.055,4.124,4.124,0,0,1,45.322-.4a1.518,1.518,0,0,1-.7-1.367,1.709,1.709,0,0,1,.561-1.391,2.751,2.751,0,0,1,1.777-.468h3.555v-1a1.515,1.515,0,0,0-.53-1.3,2.561,2.561,0,0,0-1.542-.393h-.766a2.886,2.886,0,0,0-1.538.335,1.226,1.226,0,0,0-.526,1.121v.267h-.4V-4.9a1.553,1.553,0,0,1,.608-1.357A3.116,3.116,0,0,1,47.633-6.692ZM47.564-.321a4.952,4.952,0,0,0,1.09-.116,3.656,3.656,0,0,0,.94-.345,1.771,1.771,0,0,0,.673-.629,1.688,1.688,0,0,0,.25-.913v-.923H47.031A2.547,2.547,0,0,0,45.51-2.9a1.316,1.316,0,0,0-.461,1.118,1.188,1.188,0,0,0,.6,1.1A3.944,3.944,0,0,0,47.564-.321Zm5.291-6.33h1.723V-9.2H55v2.55h2.379v.4H55v4.293A1.71,1.71,0,0,0,55.34-.718a1.645,1.645,0,0,0,1.152.328h1.148v.376a11.579,11.579,0,0,1-1.2.027A1.964,1.964,0,0,1,55.019-.42a2.041,2.041,0,0,1-.441-1.487V-6.255H52.855ZM59.486-9.5H59.9v1.723h-.417Zm0,2.844H59.9V0h-.417Zm5.776-.041h1.278a2.94,2.94,0,0,1,2.105.7,2.571,2.571,0,0,1,.738,1.958v1.415a2.548,2.548,0,0,1-.738,1.952,2.959,2.959,0,0,1-2.105.694H65.263a2.921,2.921,0,0,1-2.1-.694,2.568,2.568,0,0,1-.728-1.952V-4.033A2.582,2.582,0,0,1,63.171-6,2.914,2.914,0,0,1,65.263-6.692Zm.062,6.33h1.162a2.6,2.6,0,0,0,1.832-.595,2.222,2.222,0,0,0,.643-1.716V-3.979A2.245,2.245,0,0,0,68.318-5.7a2.581,2.581,0,0,0-1.832-.6H65.324a2.573,2.573,0,0,0-1.822.6,2.238,2.238,0,0,0-.646,1.723v1.306A2.225,2.225,0,0,0,63.5-.96,2.579,2.579,0,0,0,65.324-.362Zm6.549-6.289h.417v1.511a2.292,2.292,0,0,1,.875-1.118,2.716,2.716,0,0,1,1.565-.42h.937a2.525,2.525,0,0,1,1.887.656A2.556,2.556,0,0,1,78.2-4.156V0h-.417V-4.1a2.2,2.2,0,0,0-.561-1.627,2.223,2.223,0,0,0-1.641-.561h-.9a2.289,2.289,0,0,0-1.764.677,2.349,2.349,0,0,0-.629,1.661V0h-.417Z" transform="translate(61 128)" fill="#fff"/>
    <g id="Ellipse_481" data-name="Ellipse 481" transform="translate(14 14)" fill="none" stroke="#fff" stroke-width="1" stroke-dasharray="3 47">
      <circle cx="86" cy="86" r="86" stroke="none"/>
      <circle cx="86" cy="86" r="85.5" fill="none"/>
    </g>
  </g>
</svg>
