<svg xmlns="http://www.w3.org/2000/svg" xmlns:xlink="http://www.w3.org/1999/xlink" width="200" height="200" viewBox="0 0 200 200">
  <defs>
    <clipPath id="clip-bubble-2">
      <rect width="200" height="200"/>
    </clipPath>
  </defs>
  <g id="bubble-2" clip-path="url(#clip-bubble-2)">
    <g id="Path_1211" data-name="Path 1211" transform="translate(7 7)" fill="none" stroke-linecap="round">
      <path d="M93.5,0A93.5,93.5,0,1,1,0,93.5,93.5,93.5,0,0,1,93.5,0Z" stroke="none"/>
      <path d="M 93.5 3 C 87.35773468017578 3 81.22020721435547 3.618637084960938 75.25791931152344 4.83868408203125 C 69.44868469238281 6.027420043945312 63.73455047607422 7.801177978515625 58.27423095703125 10.1107177734375 C 52.91239929199219 12.37858581542969 47.74066162109375 15.18572998046875 42.90267944335938 18.45420837402344 C 38.10992431640625 21.692138671875 33.60289001464844 25.41078186035156 29.5068359375 29.5068359375 C 25.41078186035156 33.60289001464844 21.692138671875 38.10992431640625 18.45420837402344 42.90267944335938 C 15.18572998046875 47.74066162109375 12.37858581542969 52.91239929199219 10.1107177734375 58.27423095703125 C 7.801177978515625 63.73455047607422 6.027420043945312 69.44868469238281 4.83868408203125 75.25791931152344 C 3.618637084960938 81.22020721435547 3 87.35773468017578 3 93.5 C 3 99.64226531982422 3.618637084960938 105.7797927856445 4.83868408203125 111.7420806884766 C 6.027420043945312 117.5513153076172 7.801177978515625 123.2654418945312 10.1107177734375 128.7257690429688 C 12.37858581542969 134.0876007080078 15.18572998046875 139.2593383789062 18.45420837402344 144.0973205566406 C 21.692138671875 148.8900756835938 25.41078186035156 153.3971099853516 29.5068359375 157.4931640625 C 33.60289001464844 161.5892028808594 38.10992431640625 165.307861328125 42.90267944335938 168.5457916259766 C 47.74066162109375 171.8142700195312 52.91239929199219 174.6214141845703 58.27423095703125 176.8892822265625 C 63.73455047607422 179.1988220214844 69.44868469238281 180.9725799560547 75.25791931152344 182.1613159179688 C 81.22020721435547 183.3813629150391 87.35773468017578 184 93.5 184 C 99.64226531982422 184 105.7797927856445 183.3813629150391 111.7420806884766 182.1613159179688 C 117.5513153076172 180.9725799560547 123.2654418945312 179.1988220214844 128.7257690429688 176.8892822265625 C 134.0876007080078 174.6214141845703 139.2593383789062 171.8142700195312 144.0973205566406 168.5457916259766 C 148.8900756835938 165.307861328125 153.3971099853516 161.5892028808594 157.4931640625 157.4931640625 C 161.5892028808594 153.3971099853516 165.307861328125 148.8900756835938 168.5457916259766 144.0973205566406 C 171.8142700195312 139.2593383789062 174.6214141845703 134.0876007080078 176.8892822265625 128.7257690429688 C 179.1988220214844 123.2654418945312 180.9725799560547 117.5513153076172 182.1613159179688 111.7420806884766 C 183.3813629150391 105.7797927856445 184 99.64226531982422 184 93.5 C 184 87.35773468017578 183.3813629150391 81.22020721435547 182.1613159179688 75.25791931152344 C 180.9725799560547 69.44868469238281 179.1988220214844 63.73455047607422 176.8892822265625 58.27423095703125 C 174.6214141845703 52.91239929199219 171.8142700195312 47.74066162109375 168.5457916259766 42.90267944335938 C 165.307861328125 38.10992431640625 161.5892028808594 33.60289001464844 157.4931640625 29.5068359375 C 153.3971099853516 25.41078186035156 148.8900756835938 21.692138671875 144.0973205566406 18.45420837402344 C 139.2593383789062 15.18572998046875 134.0876007080078 12.37858581542969 128.7257690429688 10.1107177734375 C 123.2654418945312 7.801177978515625 117.5513153076172 6.027420043945312 111.7420806884766 4.83868408203125 C 105.7797927856445 3.618637084960938 99.64226531982422 3 93.5 3 M 93.5 0 C 145.1386108398438 0 187 41.86138916015625 187 93.5 C 187 145.1386108398438 145.1386108398438 187 93.5 187 C 41.86138916015625 187 0 145.1386108398438 0 93.5 C 0 41.86138916015625 41.86138916015625 0 93.5 0 Z" stroke="none" fill="#fff"/>
    </g>
    <path id="Path_1219" data-name="Path 1219" d="M14.7-11.2v4.55H12.25L14.7-4.2V0H11.9V-3.038L10.738-4.2H3.5V0H.7V-8.4l2.8-2.8ZM11.9-7V-8.4H4.662L3.5-7.238V-7Zm4.2-4.2h14v2.8H18.9V-7H30.1v2.8H20.062L18.9-3.038V-2.8H30.1V0h-14V-4.2l2.45-2.45H16.1Zm29.4,0v2.8H34.3V-7H45.5v2.8H35.462L34.3-3.038V0H31.5V-4.2l2.45-2.45H31.5V-11.2Zm1.4,0h14v2.8H49.7V-7H60.9v2.8H50.862L49.7-3.038V-2.8H60.9V0h-14V-4.2l2.45-2.45H46.9Zm29.4,0v4.55H73.85L76.3-4.2V0H73.5V-3.038L72.338-4.2H65.1V0H62.3V-8.4l2.8-2.8ZM73.5-7V-8.4H66.262L65.1-7.238V-7Zm18.2-4.2v4.55H89.25L91.7-4.2V0H88.9V-3.038L87.738-4.2H80.5V0H77.7V-8.4l2.8-2.8ZM88.9-7V-8.4H81.662L80.5-7.238V-7Zm12.6-4.2h5.6V0h-2.8V-2.45L101.85,0H93.1V-2.8Zm2.8,8.05V-8.4h-1.638l-5.6,5.6h3.626l1.988-1.974Zm10.962.35H122.5V0h-8.4l-5.6-5.6v-5.6h2.8v4.438l1.974,1.988Z" transform="translate(39 106)" fill="#fff"/>
    <g id="Ellipse_480" data-name="Ellipse 480" transform="translate(20 20)" fill="none" stroke="#1be6b2" stroke-width="10">
      <circle cx="80" cy="80" r="80" stroke="none"/>
      <circle cx="80" cy="80" r="75" fill="none"/>
    </g>
    <path id="Path_1218" data-name="Path 1218" d="M5.223-9.83h1.8a3.613,3.613,0,0,1,2.56.807A2.9,2.9,0,0,1,10.445-6.8v.376h-.437v-.321A2.562,2.562,0,0,0,9.263-8.7a3.246,3.246,0,0,0-2.3-.708H5.277a3.645,3.645,0,0,0-2.693.9A3.5,3.5,0,0,0,1.7-5.934v2.071a3.5,3.5,0,0,0,.889,2.577,3.645,3.645,0,0,0,2.693.9H6.932a4.565,4.565,0,0,0,1.418-.2,2.306,2.306,0,0,0,.964-.571,2.374,2.374,0,0,0,.533-.865,3.325,3.325,0,0,0,.174-1.114v-.417h.438v.485A2.99,2.99,0,0,1,9.591-.807,3.606,3.606,0,0,1,7,.027H5.223A4.049,4.049,0,0,1,2.252-.96a3.819,3.819,0,0,1-.995-2.833V-6.009a3.819,3.819,0,0,1,.995-2.833A4.049,4.049,0,0,1,5.223-9.83ZM13-6.651h.4v1.415a2.17,2.17,0,0,1,.79-1.049,2.262,2.262,0,0,1,1.35-.393h.772a2.665,2.665,0,0,1,1.647.42A1.531,1.531,0,0,1,18.5-4.97v.4h-.41V-4.9a1.218,1.218,0,0,0-.441-1.046,2.262,2.262,0,0,0-1.35-.328H15.47a1.831,1.831,0,0,0-1.524.673,2.555,2.555,0,0,0-.533,1.637V0H13Zm9.851-.041h.882q2.427,0,2.427,2.017v3.418a.85.85,0,0,0,.239.673,1.079,1.079,0,0,0,.725.208h.4v.349A3.527,3.527,0,0,1,27.009,0q-1.251,0-1.251-1.094l.014-.28A2.152,2.152,0,0,1,24.637-.3a4.681,4.681,0,0,1-1.914.359A4.124,4.124,0,0,1,20.535-.4a1.518,1.518,0,0,1-.7-1.367A1.709,1.709,0,0,1,20.4-3.155a2.751,2.751,0,0,1,1.777-.468H25.73v-1a1.515,1.515,0,0,0-.53-1.3,2.561,2.561,0,0,0-1.542-.393h-.766a2.886,2.886,0,0,0-1.538.335,1.226,1.226,0,0,0-.526,1.121v.267h-.4V-4.9a1.553,1.553,0,0,1,.608-1.357A3.116,3.116,0,0,1,22.846-6.692ZM22.777-.321a4.952,4.952,0,0,0,1.09-.116,3.656,3.656,0,0,0,.94-.345,1.771,1.771,0,0,0,.673-.629,1.688,1.688,0,0,0,.25-.913v-.923H22.244a2.547,2.547,0,0,0-1.521.352,1.316,1.316,0,0,0-.461,1.118,1.188,1.188,0,0,0,.6,1.1A3.944,3.944,0,0,0,22.777-.321Zm6.241-6.33h5.893v.424L29.155-.39h5.66V0H28.622V-.417l5.756-5.858H29.019Zm6.979,0h.451l2.3,5.783a.957.957,0,0,0,.26.376.708.708,0,0,0,.424.1h.6A.706.706,0,0,0,40.458-.5.831.831,0,0,0,40.7-.868l2.256-5.783h.431L41.125-.745,41-.479v.014L39.683,2.8h-.451L40.366-.014A2.433,2.433,0,0,1,40.059,0h-.7a1.055,1.055,0,0,1-.66-.174,1.245,1.245,0,0,1-.366-.571Z" transform="translate(78 82)" fill="#fff"/>
    <path id="Path_1220" data-name="Path 1220" d="M5.223-9.83h1.8a3.613,3.613,0,0,1,2.56.807A2.9,2.9,0,0,1,10.445-6.8v.376h-.437v-.321A2.562,2.562,0,0,0,9.263-8.7a3.246,3.246,0,0,0-2.3-.708H5.277a3.645,3.645,0,0,0-2.693.9A3.5,3.5,0,0,0,1.7-5.934v2.071a3.5,3.5,0,0,0,.889,2.577,3.645,3.645,0,0,0,2.693.9H6.932a4.565,4.565,0,0,0,1.418-.2,2.306,2.306,0,0,0,.964-.571,2.374,2.374,0,0,0,.533-.865,3.325,3.325,0,0,0,.174-1.114v-.417h.438v.485A2.99,2.99,0,0,1,9.591-.807,3.606,3.606,0,0,1,7,.027H5.223A4.049,4.049,0,0,1,2.252-.96a3.819,3.819,0,0,1-.995-2.833V-6.009a3.819,3.819,0,0,1,.995-2.833A4.049,4.049,0,0,1,5.223-9.83Zm10.3,3.138H16.8a2.94,2.94,0,0,1,2.105.7,2.571,2.571,0,0,1,.738,1.958v1.415a2.548,2.548,0,0,1-.738,1.952A2.959,2.959,0,0,1,16.8.027H15.524a2.921,2.921,0,0,1-2.1-.694A2.568,2.568,0,0,1,12.7-2.618V-4.033A2.581,2.581,0,0,1,13.433-6,2.914,2.914,0,0,1,15.524-6.692Zm.062,6.33h1.162A2.6,2.6,0,0,0,18.58-.957a2.222,2.222,0,0,0,.643-1.716V-3.979A2.245,2.245,0,0,0,18.58-5.7a2.581,2.581,0,0,0-1.832-.6H15.586a2.573,2.573,0,0,0-1.822.6,2.238,2.238,0,0,0-.646,1.723v1.306A2.225,2.225,0,0,0,13.761-.96,2.579,2.579,0,0,0,15.586-.362Zm14.9-6.316h.8a2.414,2.414,0,0,1,1.825.636A2.568,2.568,0,0,1,33.722-4.2V0H33.3V-4.143a1.882,1.882,0,0,0-2.112-2.146h-.731a2.714,2.714,0,0,0-1.019.181,1.867,1.867,0,0,0-.728.5,2.214,2.214,0,0,0-.42.725,2.621,2.621,0,0,0-.144.878V0h-.417V-4.143a1.882,1.882,0,0,0-2.112-2.146h-.745a2.188,2.188,0,0,0-1.716.677,2.4,2.4,0,0,0-.608,1.661V0h-.417V-6.651h.417v1.511a2.319,2.319,0,0,1,.861-1.118,2.587,2.587,0,0,1,1.518-.42h.8q1.928,0,2.3,1.538a2.23,2.23,0,0,1,.882-1.118A2.782,2.782,0,0,1,30.488-6.679Zm6-2.816H36.9v1.723h-.417Zm0,2.844H36.9V0h-.417Zm5.188-.041h1.237q2.112,0,2.112,1.538v.308H44.6v-.267a1.031,1.031,0,0,0-.417-.919,2.393,2.393,0,0,0-1.319-.284H41.72q-1.935,0-1.935,1.224v.15a.921.921,0,0,0,.407.844,2.966,2.966,0,0,0,1.234.345l2.058.212a2.418,2.418,0,0,1,1.436.523,1.56,1.56,0,0,1,.41,1.159v.137A1.528,1.528,0,0,1,44.745-.4,3.353,3.353,0,0,1,42.82.027H41.439q-2.256,0-2.256-1.914v-.355h.4v.335a1.465,1.465,0,0,0,.461,1.176,2.163,2.163,0,0,0,1.432.4h1.285A3.13,3.13,0,0,0,44.427-.66a1.185,1.185,0,0,0,.485-1.063v-.1a1.683,1.683,0,0,0-.068-.513,1.026,1.026,0,0,0-.246-.4,1.285,1.285,0,0,0-.509-.3,3.585,3.585,0,0,0-.831-.164l-2-.212a2.885,2.885,0,0,1-1.4-.437,1.229,1.229,0,0,1-.489-1.073v-.212a1.323,1.323,0,0,1,.588-1.162A3.03,3.03,0,0,1,41.672-6.692Zm7.848,0h1.237q2.112,0,2.112,1.538v.308h-.417v-.267a1.031,1.031,0,0,0-.417-.919,2.393,2.393,0,0,0-1.319-.284H49.567q-1.935,0-1.935,1.224v.15a.921.921,0,0,0,.407.844,2.966,2.966,0,0,0,1.234.345l2.058.212a2.418,2.418,0,0,1,1.436.523,1.56,1.56,0,0,1,.41,1.159v.137A1.528,1.528,0,0,1,52.592-.4a3.353,3.353,0,0,1-1.924.424H49.287q-2.256,0-2.256-1.914v-.355h.4v.335A1.465,1.465,0,0,0,47.9-.731a2.163,2.163,0,0,0,1.432.4h1.285A3.13,3.13,0,0,0,52.274-.66a1.185,1.185,0,0,0,.485-1.063v-.1a1.683,1.683,0,0,0-.068-.513,1.026,1.026,0,0,0-.246-.4,1.285,1.285,0,0,0-.509-.3,3.585,3.585,0,0,0-.831-.164l-2-.212a2.885,2.885,0,0,1-1.4-.437,1.229,1.229,0,0,1-.489-1.073v-.212A1.323,1.323,0,0,1,47.8-6.289,3.03,3.03,0,0,1,49.52-6.692Zm5.947-2.8h.417v1.723h-.417Zm0,2.844h.417V0h-.417Zm5.776-.041h1.278a2.94,2.94,0,0,1,2.105.7,2.571,2.571,0,0,1,.738,1.958v1.415a2.548,2.548,0,0,1-.738,1.952,2.959,2.959,0,0,1-2.105.694H61.243a2.921,2.921,0,0,1-2.1-.694,2.568,2.568,0,0,1-.728-1.952V-4.033A2.582,2.582,0,0,1,59.151-6,2.914,2.914,0,0,1,61.243-6.692ZM61.3-.362h1.162A2.6,2.6,0,0,0,64.3-.957a2.222,2.222,0,0,0,.643-1.716V-3.979A2.245,2.245,0,0,0,64.3-5.7a2.581,2.581,0,0,0-1.832-.6H61.3a2.573,2.573,0,0,0-1.822.6,2.238,2.238,0,0,0-.646,1.723v1.306A2.225,2.225,0,0,0,59.479-.96,2.579,2.579,0,0,0,61.3-.362Zm6.549-6.289h.417v1.511a2.292,2.292,0,0,1,.875-1.118,2.716,2.716,0,0,1,1.565-.42h.937a2.525,2.525,0,0,1,1.887.656,2.556,2.556,0,0,1,.643,1.866V0H73.76V-4.1A2.2,2.2,0,0,0,73.2-5.729a2.223,2.223,0,0,0-1.641-.561h-.9a2.289,2.289,0,0,0-1.764.677,2.349,2.349,0,0,0-.629,1.661V0h-.417Z" transform="translate(63 126)" fill="#fff"/>
    <g id="Ellipse_481" data-name="Ellipse 481" transform="translate(14 14)" fill="none" stroke="#fff" stroke-width="1" stroke-dasharray="3 47">
      <circle cx="86" cy="86" r="86" stroke="none"/>
      <circle cx="86" cy="86" r="85.5" fill="none"/>
    </g>
  </g>
</svg>
