<svg xmlns="http://www.w3.org/2000/svg" width="635.334" height="135.724" viewBox="0 0 635.334 135.724">
  <path id="Intersection_1" data-name="Intersection 1" d="M-140.216-1339.473v-46.509H-274.835v-6.238l9.224-9.224h125.394v-62.548H224.11l-11.558,11.557H12.234l17.228,17.228H204.269l-15.462,15.462H44.924l18.3,18.3h63.114l12.246,12.246H354.015l-14.045-14.046H282.712l27.19-27.188h49.6v1.718H310.613l-23.753,23.752h53.821l17.482,17.483H140.3l6.884,6.885H359.5v15.462H140.783l-20.848-20.849H78.687l30.536,30.537H281.489v1.718H108.511l-32.253-32.254H72.11L88.3-1369.794h-7l-16.187-16.188H-138.5v46.509Zm196.864-61.971H60.8l-18.3-18.3H38.52l-15.462-15.462h3.975L8.087-1454.154H211.839l8.122-8.121H-138.5v60.831H49.646l-14.088-14.088,3.5-3.5Zm-178.872-15.5v-6.178l9.284-9.283H16.324l15.461,15.462Zm316.562-4.395L209.8-1436.8h5.759L200.1-1421.338Zm11.165-.2,15.462-15.462h5.758l-15.462,15.462Zm11.015-.574,15.461-15.462h10.688l16.885-16.885h21.867l-32.347,32.347Zm88.411-36.627H262.11l15.462-15.462H359.5v15.462Z" transform="translate(275.335 1474.696)" fill="#03ffff" stroke="rgba(0,0,0,0)" stroke-miterlimit="10" stroke-width="1"/>
</svg>
