<svg xmlns="http://www.w3.org/2000/svg" width="187.323" height="139.097" viewBox="0 0 187.323 139.097">
  <g id="Group_1527" data-name="Group 1527" transform="translate(-819.401 -325.353)">
    <path id="Path_1210" data-name="Path 1210" d="M-23.583-7.02l20.162.371L4.74-.422H46.13l6.012-6.883,17.44-.333L53.217,14.1H4.74Z" transform="translate(889.401 450.353)" fill="#000"/>
    <path id="Path_13" data-name="Path 13" d="M187.323,121.686H147.693l-.057-.044H39.13v-.074H36.7v-2.353H33.669v2.353H31.241v-2.353H28.207v2.353H25.78v-2.353H22.746v2.353H0l20.98-16.3h6.4L72.113,69.82l.43-4.9L91.508,50.11V80.97l-30.3,23.681h64.4L95.83,81.679l-.54-32.234L115.046,65l.589,5.194,44.525,34.987h6.081l21.08,16.5ZM39.568,72.244H0l20.98-16.3h6.4L72.113,20.5l.43-4.9L91.508.786v30.86l-51.941,40.6Zm147.148,0H147.086L95.223,32.234,94.683,0l19.756,15.558.589,5.194,44.524,34.987h6.082l21.08,16.5Z" transform="translate(819.401 325.353)" fill="#000"/>
  </g>
</svg>
