<svg xmlns="http://www.w3.org/2000/svg" xmlns:xlink="http://www.w3.org/1999/xlink" width="200" height="200" viewBox="0 0 200 200">
  <defs>
    <clipPath id="clip-bubble-5">
      <rect width="200" height="200"/>
    </clipPath>
  </defs>
  <g id="bubble-5" clip-path="url(#clip-bubble-5)">
    <g id="Path_1211" data-name="Path 1211" transform="translate(7 7)" fill="none" stroke-linecap="round">
      <path d="M93.5,0A93.5,93.5,0,1,1,0,93.5,93.5,93.5,0,0,1,93.5,0Z" stroke="none"/>
      <path d="M 93.5 3 C 87.35773468017578 3 81.22020721435547 3.618637084960938 75.25791931152344 4.83868408203125 C 69.44868469238281 6.027420043945312 63.73455047607422 7.801177978515625 58.27423095703125 10.1107177734375 C 52.91239929199219 12.37858581542969 47.74066162109375 15.18572998046875 42.90267944335938 18.45420837402344 C 38.10992431640625 21.692138671875 33.60289001464844 25.41078186035156 29.5068359375 29.5068359375 C 25.41078186035156 33.60289001464844 21.692138671875 38.10992431640625 18.45420837402344 42.90267944335938 C 15.18572998046875 47.74066162109375 12.37858581542969 52.91239929199219 10.1107177734375 58.27423095703125 C 7.801177978515625 63.73455047607422 6.027420043945312 69.44868469238281 4.83868408203125 75.25791931152344 C 3.618637084960938 81.22020721435547 3 87.35773468017578 3 93.5 C 3 99.64226531982422 3.618637084960938 105.7797927856445 4.83868408203125 111.7420806884766 C 6.027420043945312 117.5513153076172 7.801177978515625 123.2654418945312 10.1107177734375 128.7257690429688 C 12.37858581542969 134.0876007080078 15.18572998046875 139.2593383789062 18.45420837402344 144.0973205566406 C 21.692138671875 148.8900756835938 25.41078186035156 153.3971099853516 29.5068359375 157.4931640625 C 33.60289001464844 161.5892028808594 38.10992431640625 165.307861328125 42.90267944335938 168.5457916259766 C 47.74066162109375 171.8142700195312 52.91239929199219 174.6214141845703 58.27423095703125 176.8892822265625 C 63.73455047607422 179.1988220214844 69.44868469238281 180.9725799560547 75.25791931152344 182.1613159179688 C 81.22020721435547 183.3813629150391 87.35773468017578 184 93.5 184 C 99.64226531982422 184 105.7797927856445 183.3813629150391 111.7420806884766 182.1613159179688 C 117.5513153076172 180.9725799560547 123.2654418945312 179.1988220214844 128.7257690429688 176.8892822265625 C 134.0876007080078 174.6214141845703 139.2593383789062 171.8142700195312 144.0973205566406 168.5457916259766 C 148.8900756835938 165.307861328125 153.3971099853516 161.5892028808594 157.4931640625 157.4931640625 C 161.5892028808594 153.3971099853516 165.307861328125 148.8900756835938 168.5457916259766 144.0973205566406 C 171.8142700195312 139.2593383789062 174.6214141845703 134.0876007080078 176.8892822265625 128.7257690429688 C 179.1988220214844 123.2654418945312 180.9725799560547 117.5513153076172 182.1613159179688 111.7420806884766 C 183.3813629150391 105.7797927856445 184 99.64226531982422 184 93.5 C 184 87.35773468017578 183.3813629150391 81.22020721435547 182.1613159179688 75.25791931152344 C 180.9725799560547 69.44868469238281 179.1988220214844 63.73455047607422 176.8892822265625 58.27423095703125 C 174.6214141845703 52.91239929199219 171.8142700195312 47.74066162109375 168.5457916259766 42.90267944335938 C 165.307861328125 38.10992431640625 161.5892028808594 33.60289001464844 157.4931640625 29.5068359375 C 153.3971099853516 25.41078186035156 148.8900756835938 21.692138671875 144.0973205566406 18.45420837402344 C 139.2593383789062 15.18572998046875 134.0876007080078 12.37858581542969 128.7257690429688 10.1107177734375 C 123.2654418945312 7.801177978515625 117.5513153076172 6.027420043945312 111.7420806884766 4.83868408203125 C 105.7797927856445 3.618637084960938 99.64226531982422 3 93.5 3 M 93.5 0 C 145.1386108398438 0 187 41.86138916015625 187 93.5 C 187 145.1386108398438 145.1386108398438 187 93.5 187 C 41.86138916015625 187 0 145.1386108398438 0 93.5 C 0 41.86138916015625 41.86138916015625 0 93.5 0 Z" stroke="none" fill="#fff"/>
    </g>
    <path id="Path_1228" data-name="Path 1228" d="M15.75-12v4.875H13.125L15.75-4.5V0h-3V-3.255L11.505-4.5H3.75V0h-3V-9l3-3Zm-3,4.5V-9H4.995L3.75-7.755V-7.5Zm4.5-4.5h15v3h-12v1.5h12v3H21.495L20.25-3.255V-3h12V0h-15V-4.5l2.625-2.625H17.25Zm28.5,0h3V0h-6l-9-9v-3h3v1.755L43.995-3H45.75Zm4.5,0h15v3h-12v1.5h12v3H54.495L53.25-3.255V-3h12V0h-15V-4.5l2.625-2.625H50.25Zm28.5,0h3V0h-6l-3-3V-7.755L71.5-9H69.75V0h-3V-12h6l3,3v4.755L77-3H78.75Zm16.5,0h3V0h-12l-3-3v-9h3v7.755L87.5-3H95.25Zm4.5,0h15v3h-12v1.5h12v3H104L102.75-3.255V-3h12V0h-15V-4.5l2.625-2.625H99.75Z" transform="translate(42 106)" fill="#fff"/>
    <g id="Ellipse_480" data-name="Ellipse 480" transform="translate(20 20)" fill="none" stroke="#1be6b2" stroke-width="10">
      <circle cx="80" cy="80" r="80" stroke="none"/>
      <circle cx="80" cy="80" r="75" fill="none"/>
    </g>
    <path id="Path_1227" data-name="Path 1227" d="M1.524-9.8h.438v4.594h7.28V-9.8h.431V0H9.242V-4.785H1.962V0H1.524ZM12.5-6.651h.417v4.1a2.252,2.252,0,0,0,.54,1.63,2.149,2.149,0,0,0,1.613.557h.9a2.3,2.3,0,0,0,1.774-.677A2.357,2.357,0,0,0,18.368-2.7V-6.651h.417V0h-.4V-1.511a2.292,2.292,0,0,1-.875,1.118,2.742,2.742,0,0,1-1.579.42h-.937a2.459,2.459,0,0,1-1.859-.656A2.59,2.59,0,0,1,12.5-2.5Zm15.6,0V.137a2.661,2.661,0,0,1-.714,2,2.964,2.964,0,0,1-2.143.694H24.131a3.417,3.417,0,0,1-1.921-.482A1.588,1.588,0,0,1,21.485.937V.629h.4V.9a1.307,1.307,0,0,0,.311.9,1.667,1.667,0,0,0,.8.5,4.2,4.2,0,0,0,1.169.144h1.046q2.468,0,2.468-2.352v-1.75a2.3,2.3,0,0,1-.913,1.107,2.875,2.875,0,0,1-1.61.424h-1.08a2.9,2.9,0,0,1-2.105-.7A2.618,2.618,0,0,1,21.26-2.8V-4.02a2.63,2.63,0,0,1,.718-1.972,2.9,2.9,0,0,1,2.105-.7h1.08a2.84,2.84,0,0,1,1.61.431,2.337,2.337,0,0,1,.913,1.121V-6.651ZM25.2-.533a2.424,2.424,0,0,0,1.825-.677,2.3,2.3,0,0,0,.656-1.661v-1.08a2.335,2.335,0,0,0-.646-1.671,2.374,2.374,0,0,0-1.808-.68H24.145a2.568,2.568,0,0,0-1.829.6,2.251,2.251,0,0,0-.639,1.723v1.135a2.229,2.229,0,0,0,.639,1.716,2.587,2.587,0,0,0,1.829.595Zm8.21-6.159h1.265A2.66,2.66,0,0,1,36.685-6a2.567,2.567,0,0,1,.667,1.856v.95H31.008v.533A2.241,2.241,0,0,0,31.65-.93a2.589,2.589,0,0,0,1.825.595h1.2a4.449,4.449,0,0,0,.854-.075,2.645,2.645,0,0,0,.7-.236,1.162,1.162,0,0,0,.485-.451,1.345,1.345,0,0,0,.171-.694v-.335h.424v.362A1.479,1.479,0,0,1,36.6-.417a3.484,3.484,0,0,1-1.863.444H33.414a2.921,2.921,0,0,1-2.1-.694,2.568,2.568,0,0,1-.728-1.952V-4.033A2.581,2.581,0,0,1,31.322-6,2.914,2.914,0,0,1,33.414-6.692Zm-2.406,2.7v.438h5.927v-.52a2.284,2.284,0,0,0-.571-1.644,2.32,2.32,0,0,0-1.753-.6H33.476a2.589,2.589,0,0,0-1.825.595A2.241,2.241,0,0,0,31.008-3.992Z" transform="translate(81 82)" fill="#fff"/>
    <path id="Path_1229" data-name="Path 1229" d="M4.245-9.83H5.824a4.79,4.79,0,0,1,1.753.263,1.721,1.721,0,0,1,.913.735,2.509,2.509,0,0,1,.26,1.217v.362H8.333v-.321a2.237,2.237,0,0,0-.126-.8,1.4,1.4,0,0,0-.42-.578,1.916,1.916,0,0,0-.8-.366,5.419,5.419,0,0,0-1.234-.12H4.313a3.6,3.6,0,0,0-1.989.448,1.482,1.482,0,0,0-.67,1.316v.458a1.4,1.4,0,0,0,.533,1.2,3.926,3.926,0,0,0,1.832.55l2.393.239a3.9,3.9,0,0,1,2.1.714,2.023,2.023,0,0,1,.66,1.637v.547A2.081,2.081,0,0,1,8.4-.554,3.911,3.911,0,0,1,6.036.027H4.156q-3.131,0-3.131-2.563v-.6h.431v.574A2.03,2.03,0,0,0,2.119-.926a3.218,3.218,0,0,0,2.105.564H5.961a3.549,3.549,0,0,0,2.1-.492,1.762,1.762,0,0,0,.66-1.511v-.451a1.7,1.7,0,0,0-.578-1.391,3.591,3.591,0,0,0-1.89-.612L3.89-5.052a4.065,4.065,0,0,1-2.041-.656,1.751,1.751,0,0,1-.632-1.463v-.54a1.816,1.816,0,0,1,.769-1.565A3.848,3.848,0,0,1,4.245-9.83ZM11.5-9.8h.417v4.662a2.292,2.292,0,0,1,.875-1.118,2.716,2.716,0,0,1,1.565-.42h.923a2.5,2.5,0,0,1,1.876.656,2.565,2.565,0,0,1,.639,1.866V0h-.417V-4.1a2.212,2.212,0,0,0-.557-1.627,2.221,2.221,0,0,0-1.644-.561h-.868a2.289,2.289,0,0,0-1.764.677,2.349,2.349,0,0,0-.629,1.661V0H11.5ZM23.01-6.692h.882q2.427,0,2.427,2.017v3.418a.85.85,0,0,0,.239.673,1.079,1.079,0,0,0,.725.208h.4v.349A3.527,3.527,0,0,1,27.173,0q-1.251,0-1.251-1.094l.014-.28A2.152,2.152,0,0,1,24.8-.3a4.681,4.681,0,0,1-1.914.359A4.124,4.124,0,0,1,20.7-.4,1.518,1.518,0,0,1,20-1.764a1.709,1.709,0,0,1,.561-1.391,2.751,2.751,0,0,1,1.777-.468h3.555v-1a1.515,1.515,0,0,0-.53-1.3,2.561,2.561,0,0,0-1.542-.393h-.766a2.886,2.886,0,0,0-1.538.335,1.226,1.226,0,0,0-.526,1.121v.267h-.4V-4.9A1.553,1.553,0,0,1,21.2-6.258,3.116,3.116,0,0,1,23.01-6.692ZM22.941-.321a4.952,4.952,0,0,0,1.09-.116,3.656,3.656,0,0,0,.94-.345,1.771,1.771,0,0,0,.673-.629,1.688,1.688,0,0,0,.25-.913v-.923H22.408a2.547,2.547,0,0,0-1.521.352,1.316,1.316,0,0,0-.461,1.118,1.188,1.188,0,0,0,.6,1.1A3.944,3.944,0,0,0,22.941-.321Zm6.364-6.33h.4v1.415a2.17,2.17,0,0,1,.79-1.049,2.262,2.262,0,0,1,1.35-.393h.772a2.665,2.665,0,0,1,1.647.42,1.531,1.531,0,0,1,.54,1.289v.4H34.4V-4.9a1.218,1.218,0,0,0-.441-1.046,2.262,2.262,0,0,0-1.35-.328H31.78a1.831,1.831,0,0,0-1.524.673,2.555,2.555,0,0,0-.533,1.637V0h-.417ZM37-9.5h.417v1.723H37Zm0,2.844h.417V0H37Zm3.233,0h.417v1.511a2.292,2.292,0,0,1,.875-1.118,2.716,2.716,0,0,1,1.565-.42h.937a2.525,2.525,0,0,1,1.887.656,2.556,2.556,0,0,1,.643,1.866V0h-.417V-4.1a2.2,2.2,0,0,0-.561-1.627,2.223,2.223,0,0,0-1.641-.561h-.9a2.289,2.289,0,0,0-1.764.677,2.349,2.349,0,0,0-.629,1.661V0h-.417Zm15.559,0V.137a2.661,2.661,0,0,1-.714,2,2.964,2.964,0,0,1-2.143.694H51.823A3.417,3.417,0,0,1,49.9,2.348,1.588,1.588,0,0,1,49.178.937V.629h.4V.9a1.307,1.307,0,0,0,.311.9,1.667,1.667,0,0,0,.8.5,4.2,4.2,0,0,0,1.169.144H52.91q2.468,0,2.468-2.352v-1.75a2.3,2.3,0,0,1-.913,1.107,2.875,2.875,0,0,1-1.61.424h-1.08a2.9,2.9,0,0,1-2.105-.7A2.618,2.618,0,0,1,48.952-2.8V-4.02a2.63,2.63,0,0,1,.718-1.972,2.9,2.9,0,0,1,2.105-.7h1.08a2.84,2.84,0,0,1,1.61.431,2.337,2.337,0,0,1,.913,1.121V-6.651ZM52.9-.533a2.424,2.424,0,0,0,1.825-.677,2.3,2.3,0,0,0,.656-1.661v-1.08a2.335,2.335,0,0,0-.646-1.671,2.374,2.374,0,0,0-1.808-.68H51.837a2.568,2.568,0,0,0-1.829.6,2.251,2.251,0,0,0-.639,1.723v1.135a2.229,2.229,0,0,0,.639,1.716,2.587,2.587,0,0,0,1.829.595Z" transform="translate(72 129)" fill="#fff"/>
    <g id="Ellipse_481" data-name="Ellipse 481" transform="translate(14 14)" fill="none" stroke="#fff" stroke-width="1" stroke-dasharray="3 47">
      <circle cx="86" cy="86" r="86" stroke="none"/>
      <circle cx="86" cy="86" r="85.5" fill="none"/>
    </g>
  </g>
</svg>
