<svg xmlns="http://www.w3.org/2000/svg" xmlns:xlink="http://www.w3.org/1999/xlink" width="200" height="200" viewBox="0 0 200 200">
  <defs>
    <clipPath id="clip-bubble-4">
      <rect width="200" height="200"/>
    </clipPath>
  </defs>
  <g id="bubble-4" clip-path="url(#clip-bubble-4)">
    <g id="Path_1211" data-name="Path 1211" transform="translate(7 7)" fill="none" stroke-linecap="round">
      <path d="M93.5,0A93.5,93.5,0,1,1,0,93.5,93.5,93.5,0,0,1,93.5,0Z" stroke="none"/>
      <path d="M 93.5 3 C 87.35773468017578 3 81.22020721435547 3.618637084960938 75.25791931152344 4.83868408203125 C 69.44868469238281 6.027420043945312 63.73455047607422 7.801177978515625 58.27423095703125 10.1107177734375 C 52.91239929199219 12.37858581542969 47.74066162109375 15.18572998046875 42.90267944335938 18.45420837402344 C 38.10992431640625 21.692138671875 33.60289001464844 25.41078186035156 29.5068359375 29.5068359375 C 25.41078186035156 33.60289001464844 21.692138671875 38.10992431640625 18.45420837402344 42.90267944335938 C 15.18572998046875 47.74066162109375 12.37858581542969 52.91239929199219 10.1107177734375 58.27423095703125 C 7.801177978515625 63.73455047607422 6.027420043945312 69.44868469238281 4.83868408203125 75.25791931152344 C 3.618637084960938 81.22020721435547 3 87.35773468017578 3 93.5 C 3 99.64226531982422 3.618637084960938 105.7797927856445 4.83868408203125 111.7420806884766 C 6.027420043945312 117.5513153076172 7.801177978515625 123.2654418945312 10.1107177734375 128.7257690429688 C 12.37858581542969 134.0876007080078 15.18572998046875 139.2593383789062 18.45420837402344 144.0973205566406 C 21.692138671875 148.8900756835938 25.41078186035156 153.3971099853516 29.5068359375 157.4931640625 C 33.60289001464844 161.5892028808594 38.10992431640625 165.307861328125 42.90267944335938 168.5457916259766 C 47.74066162109375 171.8142700195312 52.91239929199219 174.6214141845703 58.27423095703125 176.8892822265625 C 63.73455047607422 179.1988220214844 69.44868469238281 180.9725799560547 75.25791931152344 182.1613159179688 C 81.22020721435547 183.3813629150391 87.35773468017578 184 93.5 184 C 99.64226531982422 184 105.7797927856445 183.3813629150391 111.7420806884766 182.1613159179688 C 117.5513153076172 180.9725799560547 123.2654418945312 179.1988220214844 128.7257690429688 176.8892822265625 C 134.0876007080078 174.6214141845703 139.2593383789062 171.8142700195312 144.0973205566406 168.5457916259766 C 148.8900756835938 165.307861328125 153.3971099853516 161.5892028808594 157.4931640625 157.4931640625 C 161.5892028808594 153.3971099853516 165.307861328125 148.8900756835938 168.5457916259766 144.0973205566406 C 171.8142700195312 139.2593383789062 174.6214141845703 134.0876007080078 176.8892822265625 128.7257690429688 C 179.1988220214844 123.2654418945312 180.9725799560547 117.5513153076172 182.1613159179688 111.7420806884766 C 183.3813629150391 105.7797927856445 184 99.64226531982422 184 93.5 C 184 87.35773468017578 183.3813629150391 81.22020721435547 182.1613159179688 75.25791931152344 C 180.9725799560547 69.44868469238281 179.1988220214844 63.73455047607422 176.8892822265625 58.27423095703125 C 174.6214141845703 52.91239929199219 171.8142700195312 47.74066162109375 168.5457916259766 42.90267944335938 C 165.307861328125 38.10992431640625 161.5892028808594 33.60289001464844 157.4931640625 29.5068359375 C 153.3971099853516 25.41078186035156 148.8900756835938 21.692138671875 144.0973205566406 18.45420837402344 C 139.2593383789062 15.18572998046875 134.0876007080078 12.37858581542969 128.7257690429688 10.1107177734375 C 123.2654418945312 7.801177978515625 117.5513153076172 6.027420043945312 111.7420806884766 4.83868408203125 C 105.7797927856445 3.618637084960938 99.64226531982422 3 93.5 3 M 93.5 0 C 145.1386108398438 0 187 41.86138916015625 187 93.5 C 187 145.1386108398438 145.1386108398438 187 93.5 187 C 41.86138916015625 187 0 145.1386108398438 0 93.5 C 0 41.86138916015625 41.86138916015625 0 93.5 0 Z" stroke="none" fill="#fff"/>
    </g>
    <path id="Path_1225" data-name="Path 1225" d="M21-16v6L17.5-6.5H21V0H1V-12l4-4ZM17-6H7v-4h8.34L17-11.66V-12H6.66L5-10.34V-4H17ZM27-16H43V-4L39,0H23V-12ZM39-5.66V-12H28.66L27-10.34V-4H37.34ZM49-16H65V-4L61,0H45V-12ZM61-5.66V-12H50.66L49-10.34V-4H59.34ZM71-16H87v4H72.66L71-10.34V-10H83l4,4V0H67V-4H83v-.34L81.34-6H67v-6Zm29.5,0H109v4h-8V0H97V-10.34L95.34-12H89v-4h8l3.5,3.5Z" transform="translate(45 106)" fill="#fff"/>
    <g id="Ellipse_480" data-name="Ellipse 480" transform="translate(20 20)" fill="none" stroke="#1be6b2" stroke-width="10">
      <circle cx="80" cy="80" r="80" stroke="none"/>
      <circle cx="80" cy="80" r="75" fill="none"/>
    </g>
    <path id="Path_1224" data-name="Path 1224" d="M5.223-9.83h1.8a3.613,3.613,0,0,1,2.56.807A2.9,2.9,0,0,1,10.445-6.8v.376h-.437v-.321A2.562,2.562,0,0,0,9.263-8.7a3.246,3.246,0,0,0-2.3-.708H5.277a3.645,3.645,0,0,0-2.693.9A3.5,3.5,0,0,0,1.7-5.934v2.071a3.5,3.5,0,0,0,.889,2.577,3.645,3.645,0,0,0,2.693.9H6.932a4.565,4.565,0,0,0,1.418-.2,2.306,2.306,0,0,0,.964-.571,2.374,2.374,0,0,0,.533-.865,3.325,3.325,0,0,0,.174-1.114v-.417h.438v.485A2.99,2.99,0,0,1,9.591-.807,3.606,3.606,0,0,1,7,.027H5.223A4.049,4.049,0,0,1,2.252-.96a3.819,3.819,0,0,1-.995-2.833V-6.009a3.819,3.819,0,0,1,.995-2.833A4.049,4.049,0,0,1,5.223-9.83Zm10.3,3.138H16.8a2.94,2.94,0,0,1,2.105.7,2.571,2.571,0,0,1,.738,1.958v1.415a2.548,2.548,0,0,1-.738,1.952A2.959,2.959,0,0,1,16.8.027H15.524a2.921,2.921,0,0,1-2.1-.694A2.568,2.568,0,0,1,12.7-2.618V-4.033A2.581,2.581,0,0,1,13.433-6,2.914,2.914,0,0,1,15.524-6.692Zm.062,6.33h1.162A2.6,2.6,0,0,0,18.58-.957a2.222,2.222,0,0,0,.643-1.716V-3.979A2.245,2.245,0,0,0,18.58-5.7a2.581,2.581,0,0,0-1.832-.6H15.586a2.573,2.573,0,0,0-1.822.6,2.238,2.238,0,0,0-.646,1.723v1.306A2.225,2.225,0,0,0,13.761-.96,2.579,2.579,0,0,0,15.586-.362Zm14.9-6.316h.8a2.414,2.414,0,0,1,1.825.636A2.568,2.568,0,0,1,33.722-4.2V0H33.3V-4.143a1.882,1.882,0,0,0-2.112-2.146h-.731a2.714,2.714,0,0,0-1.019.181,1.867,1.867,0,0,0-.728.5,2.214,2.214,0,0,0-.42.725,2.621,2.621,0,0,0-.144.878V0h-.417V-4.143a1.882,1.882,0,0,0-2.112-2.146h-.745a2.188,2.188,0,0,0-1.716.677,2.4,2.4,0,0,0-.608,1.661V0h-.417V-6.651h.417v1.511a2.319,2.319,0,0,1,.861-1.118,2.587,2.587,0,0,1,1.518-.42h.8q1.928,0,2.3,1.538a2.23,2.23,0,0,1,.882-1.118A2.782,2.782,0,0,1,30.488-6.679Zm14.294,0h.8a2.414,2.414,0,0,1,1.825.636A2.568,2.568,0,0,1,48.016-4.2V0H47.6V-4.143a1.882,1.882,0,0,0-2.112-2.146h-.731a2.714,2.714,0,0,0-1.019.181,1.867,1.867,0,0,0-.728.5,2.214,2.214,0,0,0-.42.725,2.621,2.621,0,0,0-.144.878V0h-.417V-4.143a1.882,1.882,0,0,0-2.112-2.146H39.17a2.188,2.188,0,0,0-1.716.677,2.4,2.4,0,0,0-.608,1.661V0h-.417V-6.651h.417v1.511a2.319,2.319,0,0,1,.861-1.118,2.587,2.587,0,0,1,1.518-.42h.8q1.928,0,2.3,1.538A2.23,2.23,0,0,1,43.2-6.258,2.782,2.782,0,0,1,44.782-6.679Zm5.872.027h.417v4.1a2.252,2.252,0,0,0,.54,1.63,2.149,2.149,0,0,0,1.613.557h.9a2.3,2.3,0,0,0,1.774-.677A2.357,2.357,0,0,0,56.52-2.7V-6.651h.417V0h-.4V-1.511a2.292,2.292,0,0,1-.875,1.118,2.742,2.742,0,0,1-1.579.42h-.937a2.459,2.459,0,0,1-1.859-.656A2.59,2.59,0,0,1,50.654-2.5Zm9.051,0h.417v1.511A2.292,2.292,0,0,1,61-6.258a2.716,2.716,0,0,1,1.565-.42H63.5a2.525,2.525,0,0,1,1.887.656,2.556,2.556,0,0,1,.643,1.866V0h-.417V-4.1a2.2,2.2,0,0,0-.561-1.627,2.223,2.223,0,0,0-1.641-.561h-.9a2.289,2.289,0,0,0-1.764.677,2.349,2.349,0,0,0-.629,1.661V0h-.417ZM68.77-9.5h.417v1.723H68.77Zm0,2.844h.417V0H68.77Zm2.153,0h1.723V-9.2h.417v2.55h2.379v.4H73.063v4.293a1.71,1.71,0,0,0,.345,1.244A1.645,1.645,0,0,0,74.56-.39h1.148v.376a11.578,11.578,0,0,1-1.2.027A1.964,1.964,0,0,1,73.086-.42a2.041,2.041,0,0,1-.441-1.487V-6.255H70.923Zm5.551,0h.451l2.3,5.783a.957.957,0,0,0,.26.376.708.708,0,0,0,.424.1h.6A.706.706,0,0,0,80.934-.5a.831.831,0,0,0,.243-.373l2.256-5.783h.431L81.6-.745l-.13.267v.014L80.158,2.8h-.451L80.842-.014A2.433,2.433,0,0,1,80.534,0h-.7a1.055,1.055,0,0,1-.66-.174,1.245,1.245,0,0,1-.366-.571Z" transform="translate(58 78)" fill="#fff"/>
    <path id="Path_1226" data-name="Path 1226" d="M4.245-9.83H5.824a4.79,4.79,0,0,1,1.753.263,1.721,1.721,0,0,1,.913.735,2.509,2.509,0,0,1,.26,1.217v.362H8.333v-.321a2.237,2.237,0,0,0-.126-.8,1.4,1.4,0,0,0-.42-.578,1.916,1.916,0,0,0-.8-.366,5.419,5.419,0,0,0-1.234-.12H4.313a3.6,3.6,0,0,0-1.989.448,1.482,1.482,0,0,0-.67,1.316v.458a1.4,1.4,0,0,0,.533,1.2,3.926,3.926,0,0,0,1.832.55l2.393.239a3.9,3.9,0,0,1,2.1.714,2.023,2.023,0,0,1,.66,1.637v.547A2.081,2.081,0,0,1,8.4-.554,3.911,3.911,0,0,1,6.036.027H4.156q-3.131,0-3.131-2.563v-.6h.431v.574A2.03,2.03,0,0,0,2.119-.926a3.218,3.218,0,0,0,2.105.564H5.961a3.549,3.549,0,0,0,2.1-.492,1.762,1.762,0,0,0,.66-1.511v-.451a1.7,1.7,0,0,0-.578-1.391,3.591,3.591,0,0,0-1.89-.612L3.89-5.052a4.065,4.065,0,0,1-2.041-.656,1.751,1.751,0,0,1-.632-1.463v-.54a1.816,1.816,0,0,1,.769-1.565A3.848,3.848,0,0,1,4.245-9.83Zm7.178,3.179h.417v1.524a2.329,2.329,0,0,1,.913-1.135,2.84,2.84,0,0,1,1.61-.431h1.08a2.9,2.9,0,0,1,2.1.7,2.616,2.616,0,0,1,.725,1.972v1.388A2.6,2.6,0,0,1,17.544-.67a2.907,2.907,0,0,1-2.1.7h-1.08A2.875,2.875,0,0,1,12.752-.4a2.3,2.3,0,0,1-.913-1.114V2.8h-.417ZM14.308-.362h1.073a2.587,2.587,0,0,0,1.829-.595,2.229,2.229,0,0,0,.639-1.716V-3.979A2.251,2.251,0,0,0,17.209-5.7a2.568,2.568,0,0,0-1.829-.6h-1.1a2.561,2.561,0,0,0-1.347.342,2.113,2.113,0,0,0-.831.872,2.6,2.6,0,0,0-.263,1.172v1.189a2.345,2.345,0,0,0,.653,1.678A2.384,2.384,0,0,0,14.308-.362Zm8.928-6.33h1.278a2.94,2.94,0,0,1,2.105.7,2.571,2.571,0,0,1,.738,1.958v1.415a2.548,2.548,0,0,1-.738,1.952,2.959,2.959,0,0,1-2.105.694H23.235a2.921,2.921,0,0,1-2.1-.694,2.568,2.568,0,0,1-.728-1.952V-4.033A2.581,2.581,0,0,1,21.144-6,2.914,2.914,0,0,1,23.235-6.692ZM23.3-.362h1.162a2.6,2.6,0,0,0,1.832-.595,2.222,2.222,0,0,0,.643-1.716V-3.979A2.245,2.245,0,0,0,26.291-5.7a2.581,2.581,0,0,0-1.832-.6H23.3a2.573,2.573,0,0,0-1.822.6,2.238,2.238,0,0,0-.646,1.723v1.306A2.225,2.225,0,0,0,21.472-.96,2.579,2.579,0,0,0,23.3-.362Zm5.441-6.289h1.723V-9.2h.417v2.55h2.379v.4H30.878v4.293a1.71,1.71,0,0,0,.345,1.244,1.645,1.645,0,0,0,1.152.328h1.148v.376a11.579,11.579,0,0,1-1.2.027A1.964,1.964,0,0,1,30.9-.42a2.041,2.041,0,0,1-.441-1.487V-6.255H28.738Zm8.921-.041H38.9q2.112,0,2.112,1.538v.308h-.417v-.267a1.031,1.031,0,0,0-.417-.919,2.393,2.393,0,0,0-1.319-.284H37.707q-1.935,0-1.935,1.224v.15a.921.921,0,0,0,.407.844,2.966,2.966,0,0,0,1.234.345l2.058.212a2.418,2.418,0,0,1,1.436.523,1.56,1.56,0,0,1,.41,1.159v.137A1.528,1.528,0,0,1,40.732-.4a3.353,3.353,0,0,1-1.924.424H37.427q-2.256,0-2.256-1.914v-.355h.4v.335a1.465,1.465,0,0,0,.461,1.176,2.163,2.163,0,0,0,1.432.4h1.285A3.13,3.13,0,0,0,40.414-.66,1.185,1.185,0,0,0,40.9-1.723v-.1a1.683,1.683,0,0,0-.068-.513,1.026,1.026,0,0,0-.246-.4,1.285,1.285,0,0,0-.509-.3,3.585,3.585,0,0,0-.831-.164l-2-.212a2.885,2.885,0,0,1-1.4-.437,1.229,1.229,0,0,1-.489-1.073v-.212a1.323,1.323,0,0,1,.588-1.162A3.03,3.03,0,0,1,37.659-6.692Z" transform="translate(79 129)" fill="#fff"/>
    <g id="Ellipse_481" data-name="Ellipse 481" transform="translate(14 14)" fill="none" stroke="#fff" stroke-width="1" stroke-dasharray="3 47">
      <circle cx="86" cy="86" r="86" stroke="none"/>
      <circle cx="86" cy="86" r="85.5" fill="none"/>
    </g>
  </g>
</svg>
