<svg xmlns="http://www.w3.org/2000/svg" xmlns:xlink="http://www.w3.org/1999/xlink" width="200" height="200" viewBox="0 0 200 200">
  <defs>
    <clipPath id="clip-bubble">
      <rect width="200" height="200"/>
    </clipPath>
  </defs>
  <g id="bubble" clip-path="url(#clip-bubble)">
    <g id="Path_1211" data-name="Path 1211" transform="translate(7 7)" fill="none" stroke-linecap="round">
      <path d="M93.5,0A93.5,93.5,0,1,1,0,93.5,93.5,93.5,0,0,1,93.5,0Z" stroke="none"/>
      <path d="M 93.5 3 C 87.35773468017578 3 81.22020721435547 3.618637084960938 75.25791931152344 4.83868408203125 C 69.44868469238281 6.027420043945312 63.73455047607422 7.801177978515625 58.27423095703125 10.1107177734375 C 52.91239929199219 12.37858581542969 47.74066162109375 15.18572998046875 42.90267944335938 18.45420837402344 C 38.10992431640625 21.692138671875 33.60289001464844 25.41078186035156 29.5068359375 29.5068359375 C 25.41078186035156 33.60289001464844 21.692138671875 38.10992431640625 18.45420837402344 42.90267944335938 C 15.18572998046875 47.74066162109375 12.37858581542969 52.91239929199219 10.1107177734375 58.27423095703125 C 7.801177978515625 63.73455047607422 6.027420043945312 69.44868469238281 4.83868408203125 75.25791931152344 C 3.618637084960938 81.22020721435547 3 87.35773468017578 3 93.5 C 3 99.64226531982422 3.618637084960938 105.7797927856445 4.83868408203125 111.7420806884766 C 6.027420043945312 117.5513153076172 7.801177978515625 123.2654418945312 10.1107177734375 128.7257690429688 C 12.37858581542969 134.0876007080078 15.18572998046875 139.2593383789062 18.45420837402344 144.0973205566406 C 21.692138671875 148.8900756835938 25.41078186035156 153.3971099853516 29.5068359375 157.4931640625 C 33.60289001464844 161.5892028808594 38.10992431640625 165.307861328125 42.90267944335938 168.5457916259766 C 47.74066162109375 171.8142700195312 52.91239929199219 174.6214141845703 58.27423095703125 176.8892822265625 C 63.73455047607422 179.1988220214844 69.44868469238281 180.9725799560547 75.25791931152344 182.1613159179688 C 81.22020721435547 183.3813629150391 87.35773468017578 184 93.5 184 C 99.64226531982422 184 105.7797927856445 183.3813629150391 111.7420806884766 182.1613159179688 C 117.5513153076172 180.9725799560547 123.2654418945312 179.1988220214844 128.7257690429688 176.8892822265625 C 134.0876007080078 174.6214141845703 139.2593383789062 171.8142700195312 144.0973205566406 168.5457916259766 C 148.8900756835938 165.307861328125 153.3971099853516 161.5892028808594 157.4931640625 157.4931640625 C 161.5892028808594 153.3971099853516 165.307861328125 148.8900756835938 168.5457916259766 144.0973205566406 C 171.8142700195312 139.2593383789062 174.6214141845703 134.0876007080078 176.8892822265625 128.7257690429688 C 179.1988220214844 123.2654418945312 180.9725799560547 117.5513153076172 182.1613159179688 111.7420806884766 C 183.3813629150391 105.7797927856445 184 99.64226531982422 184 93.5 C 184 87.35773468017578 183.3813629150391 81.22020721435547 182.1613159179688 75.25791931152344 C 180.9725799560547 69.44868469238281 179.1988220214844 63.73455047607422 176.8892822265625 58.27423095703125 C 174.6214141845703 52.91239929199219 171.8142700195312 47.74066162109375 168.5457916259766 42.90267944335938 C 165.307861328125 38.10992431640625 161.5892028808594 33.60289001464844 157.4931640625 29.5068359375 C 153.3971099853516 25.41078186035156 148.8900756835938 21.692138671875 144.0973205566406 18.45420837402344 C 139.2593383789062 15.18572998046875 134.0876007080078 12.37858581542969 128.7257690429688 10.1107177734375 C 123.2654418945312 7.801177978515625 117.5513153076172 6.027420043945312 111.7420806884766 4.83868408203125 C 105.7797927856445 3.618637084960938 99.64226531982422 3 93.5 3 M 93.5 0 C 145.1386108398438 0 187 41.86138916015625 187 93.5 C 187 145.1386108398438 145.1386108398438 187 93.5 187 C 41.86138916015625 187 0 145.1386108398438 0 93.5 C 0 41.86138916015625 41.86138916015625 0 93.5 0 Z" stroke="none" fill="#fff"/>
    </g>
    <g id="Ellipse_480" data-name="Ellipse 480" transform="translate(20 20)" fill="none" stroke="#1be6b2" stroke-width="10">
      <circle cx="80" cy="80" r="80" stroke="none"/>
      <circle cx="80" cy="80" r="75" fill="none"/>
    </g>
    <path id="Path_1212" data-name="Path 1212" d="M.374-10.5H9.419v.454H5.127V0H4.666V-10.049H.374ZM12.861-7.17h1.37a3.15,3.15,0,0,1,2.256.751,2.754,2.754,0,0,1,.791,2.1v1.516a2.73,2.73,0,0,1-.791,2.091,3.17,3.17,0,0,1-2.256.743h-1.37a3.129,3.129,0,0,1-2.245-.743,2.751,2.751,0,0,1-.78-2.091V-4.321a2.766,2.766,0,0,1,.784-2.1A3.122,3.122,0,0,1,12.861-7.17Zm.066,6.782h1.245a2.785,2.785,0,0,0,1.963-.637,2.381,2.381,0,0,0,.688-1.838v-1.4a2.4,2.4,0,0,0-.688-1.846,2.765,2.765,0,0,0-1.963-.645H12.927a2.756,2.756,0,0,0-1.952.645,2.4,2.4,0,0,0-.692,1.846v1.4a2.383,2.383,0,0,0,.688,1.835A2.764,2.764,0,0,0,12.927-.388ZM19.944-10.5h.447V0h-.447Zm5.8,3.376h.615L22.954-4.094a.665.665,0,0,0-.264.491.74.74,0,0,0,.264.5L26.4,0h-.615L22.478-2.988a.8.8,0,0,1-.271-.615.794.794,0,0,1,.271-.608Zm5.032-.044h1.355a2.85,2.85,0,0,1,2.15.743A2.75,2.75,0,0,1,35-4.438V-3.42H28.2v.571A2.4,2.4,0,0,0,28.887-1a2.774,2.774,0,0,0,1.956.637h1.289a4.767,4.767,0,0,0,.916-.081,2.834,2.834,0,0,0,.747-.253,1.245,1.245,0,0,0,.52-.483,1.441,1.441,0,0,0,.183-.743v-.359h.454v.388a1.585,1.585,0,0,1-.765,1.443,3.733,3.733,0,0,1-2,.476H30.776a3.129,3.129,0,0,1-2.245-.743,2.751,2.751,0,0,1-.78-2.091V-4.321a2.766,2.766,0,0,1,.784-2.1A3.122,3.122,0,0,1,30.776-7.17ZM28.2-4.277v.469h6.35v-.557a2.447,2.447,0,0,0-.612-1.761,2.486,2.486,0,0,0-1.879-.641H30.842a2.774,2.774,0,0,0-1.956.637A2.4,2.4,0,0,0,28.2-4.277Zm9.448-2.849h.447v1.619a2.456,2.456,0,0,1,.938-1.2,2.91,2.91,0,0,1,1.677-.45h1a2.706,2.706,0,0,1,2.021.7,2.739,2.739,0,0,1,.688,2V0h-.447V-4.395a2.361,2.361,0,0,0-.6-1.743,2.382,2.382,0,0,0-1.758-.6h-.959a2.452,2.452,0,0,0-1.89.725,2.517,2.517,0,0,0-.674,1.78V0h-.447Z" transform="translate(78 81)" fill="#fff"/>
    <path id="Path_1214" data-name="Path 1214" d="M4.548-10.532H6.24a5.133,5.133,0,0,1,1.879.282,1.844,1.844,0,0,1,.978.787,2.688,2.688,0,0,1,.278,1.3v.388H8.928v-.344a2.4,2.4,0,0,0-.135-.853,1.5,1.5,0,0,0-.45-.619,2.052,2.052,0,0,0-.853-.392,5.807,5.807,0,0,0-1.322-.128H4.622a3.858,3.858,0,0,0-2.131.48,1.588,1.588,0,0,0-.718,1.41v.491a1.5,1.5,0,0,0,.571,1.285,4.206,4.206,0,0,0,1.963.59L6.87-5.6a4.184,4.184,0,0,1,2.245.765,2.167,2.167,0,0,1,.707,1.754v.586A2.229,2.229,0,0,1,9-.593,4.191,4.191,0,0,1,6.467.029H4.453Q1.1.029,1.1-2.717v-.645H1.56v.615a2.175,2.175,0,0,0,.71,1.754,3.448,3.448,0,0,0,2.256.6h1.86A3.8,3.8,0,0,0,8.639-.916a1.888,1.888,0,0,0,.707-1.619v-.483a1.818,1.818,0,0,0-.619-1.49A3.847,3.847,0,0,0,6.7-5.164L4.167-5.413a4.355,4.355,0,0,1-2.186-.7A1.877,1.877,0,0,1,1.3-7.683v-.579a1.945,1.945,0,0,1,.824-1.677A4.123,4.123,0,0,1,4.548-10.532Zm6.628,3.406h.483l2.461,6.2a1.025,1.025,0,0,0,.278.4.758.758,0,0,0,.454.11H15.5a.757.757,0,0,0,.458-.114.89.89,0,0,0,.26-.4l2.417-6.2h.461L16.67-.8l-.139.286V-.5L15.125,3h-.483L15.857-.015a2.607,2.607,0,0,1-.33.015H14.78a1.13,1.13,0,0,1-.707-.187A1.334,1.334,0,0,1,13.682-.8ZM23.064-7.17H24.39q2.263,0,2.263,1.648v.33h-.447v-.286a1.105,1.105,0,0,0-.447-.985,2.564,2.564,0,0,0-1.414-.3h-1.23q-2.073,0-2.073,1.311V-5.3a.987.987,0,0,0,.436.9,3.178,3.178,0,0,0,1.322.37l2.2.227a2.591,2.591,0,0,1,1.538.56,1.671,1.671,0,0,1,.439,1.241v.146a1.637,1.637,0,0,1-.626,1.421,3.593,3.593,0,0,1-2.062.454H22.815Q20.4.029,20.4-2.021V-2.4h.432v.359a1.57,1.57,0,0,0,.494,1.26,2.317,2.317,0,0,0,1.534.425h1.377a3.354,3.354,0,0,0,1.78-.348,1.269,1.269,0,0,0,.52-1.139v-.1a1.8,1.8,0,0,0-.073-.549,1.1,1.1,0,0,0-.264-.425,1.376,1.376,0,0,0-.546-.322,3.841,3.841,0,0,0-.89-.176l-2.146-.227a3.091,3.091,0,0,1-1.5-.469,1.317,1.317,0,0,1-.524-1.15v-.227a1.418,1.418,0,0,1,.63-1.245A3.247,3.247,0,0,1,23.064-7.17Zm5.171.044h1.846V-9.858h.447v2.732h2.549V-6.7H30.527v4.6A1.832,1.832,0,0,0,30.9-.769a1.762,1.762,0,0,0,1.234.352h1.23v.4a12.406,12.406,0,0,1-1.289.029,2.1,2.1,0,0,1-1.52-.465,2.187,2.187,0,0,1-.472-1.593V-6.7H28.235Zm9.683-.044h1.355a2.85,2.85,0,0,1,2.15.743,2.75,2.75,0,0,1,.714,1.989V-3.42h-6.8v.571A2.4,2.4,0,0,0,36.028-1a2.774,2.774,0,0,0,1.956.637h1.289a4.767,4.767,0,0,0,.916-.081,2.834,2.834,0,0,0,.747-.253,1.245,1.245,0,0,0,.52-.483,1.441,1.441,0,0,0,.183-.743v-.359h.454v.388a1.585,1.585,0,0,1-.765,1.443,3.733,3.733,0,0,1-2,.476H37.917a3.129,3.129,0,0,1-2.245-.743,2.751,2.751,0,0,1-.78-2.091V-4.321a2.766,2.766,0,0,1,.784-2.1A3.122,3.122,0,0,1,37.917-7.17ZM35.339-4.277v.469h6.35v-.557a2.447,2.447,0,0,0-.612-1.761A2.486,2.486,0,0,0,39.2-6.768H37.983a2.774,2.774,0,0,0-1.956.637A2.4,2.4,0,0,0,35.339-4.277Zm18.4-2.878h.857a2.587,2.587,0,0,1,1.956.681A2.752,2.752,0,0,1,57.2-4.5V0h-.447V-4.438a2.017,2.017,0,0,0-2.263-2.3h-.784a2.908,2.908,0,0,0-1.091.194,2,2,0,0,0-.78.535,2.373,2.373,0,0,0-.45.776,2.808,2.808,0,0,0-.154.941V0h-.447V-4.438a2.017,2.017,0,0,0-2.263-2.3h-.8a2.345,2.345,0,0,0-1.838.725,2.566,2.566,0,0,0-.652,1.78V0h-.447V-7.126h.447v1.619a2.485,2.485,0,0,1,.923-1.2,2.772,2.772,0,0,1,1.626-.45h.857q2.065,0,2.461,1.648a2.389,2.389,0,0,1,.945-1.2A2.981,2.981,0,0,1,53.738-7.156Z" transform="translate(71 126)" fill="#fff"/>
    <g id="Ellipse_481" data-name="Ellipse 481" transform="translate(14 14)" fill="none" stroke="#fff" stroke-width="1" stroke-dasharray="3 47">
      <circle cx="86" cy="86" r="86" stroke="none"/>
      <circle cx="86" cy="86" r="85.5" fill="none"/>
    </g>
    <path id="Path_1239" data-name="Path 1239" d="M8.75-11.2H14.7v2.8H9.1V0H6.3V-7.238L5.138-8.4H.7v-2.8H6.3L8.75-8.75Zm21.35,0v4.55H27.65L30.1-4.2V0H27.3V-3.038L26.138-4.2H18.9V0H16.1V-8.4l2.8-2.8ZM27.3-7V-8.4H20.062L18.9-7.238V-7Zm12.6-4.2h5.6V0H42.7V-2.45L40.25,0H31.5V-2.8Zm2.8,8.05V-8.4H41.062l-5.6,5.6h3.626l1.988-1.974Zm7-4.088V-2.8H60.9V0h-14V-8.4l2.8-2.8H60.9v2.8H50.862ZM68.95-11.2H76.3v2.8H70.112L68.712-7H73.5l2.8,2.8V0H73.5V-3.038L72.338-4.2H65.1V0H62.3V-11.2h2.8V-7h3.36L66.6-8.848Zm8.75,0h14v2.8H86.1v5.6h5.6V0h-14V-2.8h5.6V-8.4H77.7Zm26.6,0h2.8V0h-5.6L98.7-2.8V-7.238L97.538-8.4H95.9V0H93.1V-11.2h5.6l2.8,2.8v4.438L102.662-2.8H104.3Zm7,0h11.2v2.8H112.462L111.3-7.238V-2.8h8.4v-.238L118.538-4.2H112.7V-7h7l2.8,2.8V0h-14V-8.4Z" transform="translate(39 106)" fill="#fff"/>
  </g>
</svg>
